<?xml version="1.0" standalone="no"?>
<!DOCTYPE svg PUBLIC "-//W3C//DTD SVG 1.1//EN" "http://www.w3.org/Graphics/SVG/1.1/DTD/svg11.dtd" >
<svg xmlns="http://www.w3.org/2000/svg" xmlns:xlink="http://www.w3.org/1999/xlink" version="1.1">
<metadata>
Created by FontForge 20190801 at Tue Nov  7 03:45:33 2023
 By www-data
Copyright (c) 2023 by Nadiratype
</metadata>
<defs>
<font id="FaithHopeBF6549e8edd6a09" horiz-adv-x="0" >
  <font-face 
    font-family="FaithHopeBF6549e8edd6a09"
    font-weight="400"
    font-stretch="normal"
    units-per-em="1000"
    panose-1="0 0 0 0 0 0 0 0 0 0"
    ascent="800"
    descent="-200"
    x-height="691"
    cap-height="708"
    bbox="-4 -131.024 769 905.059"
    underline-thickness="0"
    underline-position="0"
    unicode-range="U+000A-00AD"
  />
<missing-glyph horiz-adv-x="527" 
d="M50 700h427v-700h-427v700zM78 680l185 -309l186 309h-371zM251 350l-180 300v-601zM264 329l-185 -308h370zM276 350l181 -303v605z" />
    <glyph glyph-name=".notdef" horiz-adv-x="527" 
d="M50 700h427v-700h-427v700zM78 680l185 -309l186 309h-371zM251 350l-180 300v-601zM264 329l-185 -308h370zM276 350l181 -303v605z" />
    <glyph glyph-name=".null" 
 />
    <glyph glyph-name=".null" 
 />
    <glyph glyph-name="nonmarkingreturn" horiz-adv-x="333" 
 />
    <glyph glyph-name="LF" unicode="&#xa;" 
 />
    <glyph glyph-name="controlCR" unicode="&#xd;" 
 />
    <glyph glyph-name="space" unicode=" " horiz-adv-x="291" 
 />
    <glyph glyph-name="exclam" unicode="!" horiz-adv-x="231" 
d="M96 6q-33 12 -43 45t11 61q22 31 61 27t57 -39q6 -13 5.5 -30.5t-8.5 -31.5q-12 -22 -36 -31.5t-47 -0.5zM92 172q-7 2 -14 7.5t-13.5 12t-9.5 13.5q-6 11 -7 41t-4 220q-2 199 3 220q3 9 14 22q21 22 53 22q14 -1 27.5 -7t23 -17t13.5 -24q1 -6 3.5 -120t3.5 -213.5
t0 -123.5q-2 -11 -8 -21.5t-15 -19t-20 -12.5q-8 -4 -24.5 -4t-25.5 4z" />
    <glyph glyph-name="quotedbl" unicode="&#x22;" horiz-adv-x="389" 
d="M233 499q-18 11 -16 31.5t23 30.5q8 4 18.5 13t10.5 12q0 2 -7 5q-18 6 -29 23.5t-11 39.5q0 19 9 34q19 31 54 33q32 2 54 -19q12 -13 16 -26t3 -38q-4 -67 -49 -111q-22 -22 -42 -29.5t-34 1.5zM93 509q-27 -16 -46 -5q-18 11 -16 31.5t23 30.5q8 5 19 13.5t11 11.5
q0 2 -8 5q-26 9 -36 39.5t4 55.5q19 36 61 36q21 0 38.5 -12t24.5 -31q5 -13 3.5 -40.5t-7.5 -46.5q-19 -57 -71 -88z" />
    <glyph glyph-name="quotedbl" unicode="&#x201d;" horiz-adv-x="389" 
d="M233 499q-18 11 -16 31.5t23 30.5q8 4 18.5 13t10.5 12q0 2 -7 5q-18 6 -29 23.5t-11 39.5q0 19 9 34q19 31 54 33q32 2 54 -19q12 -13 16 -26t3 -38q-4 -67 -49 -111q-22 -22 -42 -29.5t-34 1.5zM93 509q-27 -16 -46 -5q-18 11 -16 31.5t23 30.5q8 5 19 13.5t11 11.5
q0 2 -8 5q-26 9 -36 39.5t4 55.5q19 36 61 36q21 0 38.5 -12t24.5 -31q5 -13 3.5 -40.5t-7.5 -46.5q-19 -57 -71 -88z" />
    <glyph glyph-name="quotedbl" unicode="&#x201c;" horiz-adv-x="389" 
d="M233 499q-18 11 -16 31.5t23 30.5q8 4 18.5 13t10.5 12q0 2 -7 5q-18 6 -29 23.5t-11 39.5q0 19 9 34q19 31 54 33q32 2 54 -19q12 -13 16 -26t3 -38q-4 -67 -49 -111q-22 -22 -42 -29.5t-34 1.5zM93 509q-27 -16 -46 -5q-18 11 -16 31.5t23 30.5q8 5 19 13.5t11 11.5
q0 2 -8 5q-26 9 -36 39.5t4 55.5q19 36 61 36q21 0 38.5 -12t24.5 -31q5 -13 3.5 -40.5t-7.5 -46.5q-19 -57 -71 -88z" />
    <glyph glyph-name="numbersign" unicode="#" horiz-adv-x="751" 
d="M386 -23q-11 2 -25 12t-20 21q-11 16 -10.5 34t12.5 53l12 38l-43 1q-43 0 -45 -2t-16.5 -46.5t-20.5 -54.5q-4 -10 -15.5 -19.5t-22.5 -12.5q-27 -8 -48 0q-18 8 -31 26.5t-13 36.5q0 13 10 42t10 30.5t-24.5 3t-37.5 8.5q-25 15 -32.5 41t4.5 50.5t40 34.5q12 4 55 4
h43l21 62q21 62 22 65t-22 4h-2q-25 1 -38 9q-26 16 -32 46q-5 22 5.5 43t31.5 33q8 4 17 5t41 0l46 -1l6 15q5 15 24 71q13 39 17.5 50t13.5 20q22 24 54 21q35 -2 53 -31q9 -13 10 -33q0 -10 -1 -16.5t-3.5 -16.5t-10.5 -32q-15 -44 -15 -47t40 -3q29 0 34.5 0.5t7.5 5.5
q2 7 24 75q22 69 32 80q25 28 60 23.5t52 -37.5q9 -17 7.5 -34t-16.5 -63q-17 -52 -17 -54t19.5 -2t29.5 -4q24 -10 37 -36q18 -40 -13 -74q-13 -14 -26.5 -18t-50.5 -5h-41l-40 -125l25 -2q21 -1 32 -5t22 -15q17 -16 21 -38.5t-8 -43.5q-12 -23 -29 -29.5t-63 -6.5h-45
l-20 -61q-16 -50 -24.5 -65.5t-25.5 -23.5q-22 -10 -44 -7zM400 275l19 61q20 60 20 63.5t-35 3.5q-31 1 -40 1q-5 0 -9.5 -10t-18.5 -52q-22 -62 -22 -65q0 -1 12.5 -1.5t30.5 -0.5h43z" />
    <glyph glyph-name="dollar" unicode="$" horiz-adv-x="489" 
d="M209 -88q-40 18 -40 68v21l-12 3q-34 10 -58 28q-24 19 -26.5 49.5t17.5 51.5q36 37 87 12q18 -9 44.5 -9t42.5 6q14 6 26 16t15 20q6 17 -1 40t-22 38q-15 16 -74 41q-35 15 -60 29t-43 30t-32 35q-38 54 -38 122q0 71 40 125q17 23 44 45.5t49 31.5l14 6l1 27
q1 26 10 41q19 35 58 36t61 -34q8 -13 9 -41l1 -28l21 -7q47 -15 80 -50q20 -22 25.5 -40t-0.5 -38q-8 -29 -35 -43q-46 -22 -87 21q-24 24 -68 27q-10 1 -17 0.5t-10.5 -2t-11.5 -5.5q-29 -15 -41 -46t2 -57q6 -12 16 -21t28 -18.5t52 -24.5q40 -17 60 -29q73 -44 101 -129
q8 -24 8 -62q0 -31 -3.5 -48t-15.5 -40q-29 -58 -95 -88l-22 -11l-2 -27q-1 -15 -4 -26.5t-8.5 -20.5t-13 -15t-18.5 -11q-11 -4 -27.5 -3.5t-26.5 4.5z" />
    <glyph glyph-name="percent" unicode="%" horiz-adv-x="475" 
d="M87 7q-20 6 -34 23q-17 19 -15 49q1 13 13 41.5t69 151.5q69 148 139 298q57 124 63 133q17 22 45.5 26t50.5 -12q12 -9 20 -24.5t6 -34.5q0 -14 -19 -57t-121 -262q-139 -300 -147.5 -310t-20.5 -16q-10 -5 -25.5 -7t-23.5 1zM348 30q-18 -1 -32 6q-29 13 -37.5 42
t6.5 55t46 33q36 7 62.5 -19.5t18.5 -61.5q-5 -24 -22 -39t-42 -16zM133 567q-10 -5 -27 -6.5t-28 2.5q-24 9 -37 33q-14 25 -5 52.5t35 41.5q26 13 53.5 3.5t39.5 -35.5q12 -25 3 -51.5t-34 -39.5z" />
    <glyph glyph-name="ampersand" unicode="&#x26;" horiz-adv-x="573" 
d="M149 -8q-41 7 -71.5 31.5t-41.5 60.5q-5 17 -5 42.5t6 46.5q20 68 97 147l22 22l-7 13q-31 58 -39 120t11 110q15 40 48 72q56 51 129 55q47 2 91 -18q34 -15 59 -45t35 -65q4 -15 4 -41.5t-4 -42.5q-10 -38 -41 -81q-11 -14 -42.5 -45.5t-52.5 -47.5l-13 -11l20 -26
q20 -25 22 -27q1 -1 3.5 1t6 6.5t7.5 9.5q29 35 54 42q43 12 70 -18q15 -17 15 -45q0 -15 -8 -29t-32 -42q-18 -21 -20.5 -25.5t0.5 -8.5q6 -7 29 -30q20 -20 27 -31t8 -26q4 -36 -26.5 -57t-67.5 -8q-13 5 -43 35l-31 30l-20 -14q-83 -58 -159 -61q-25 -1 -40 1zM207 125
q12 3 32.5 14.5t33.5 21.5l6 5l-48 61l-8 -9q-26 -28 -42 -56.5t-12 -38.5q4 -8 38 2zM265.5 431.5q2.5 0.5 28.5 24.5q55 52 55 86q1 30 -28 38t-54 -15q-12 -11 -16 -22t-4 -35q0 -28 8 -52.5t10.5 -24z" />
    <glyph glyph-name="quotesingle" unicode="'" horiz-adv-x="204" 
d="M93 507q-27 -17 -46 -5q-18 11 -16 31.5t23 30.5q8 4 19 13t11 12q0 2 -8 4q-26 9 -36 39.5t4 56.5q19 36 61 35q21 0 38.5 -11.5t25.5 -31.5q4 -12 3 -40t-8 -47q-19 -56 -71 -87z" />
    <glyph glyph-name="quotesingle" unicode="&#x2019;" horiz-adv-x="204" 
d="M93 507q-27 -17 -46 -5q-18 11 -16 31.5t23 30.5q8 4 19 13t11 12q0 2 -8 4q-26 9 -36 39.5t4 56.5q19 36 61 35q21 0 38.5 -11.5t25.5 -31.5q4 -12 3 -40t-8 -47q-19 -56 -71 -87z" />
    <glyph glyph-name="quotesingle" unicode="&#x2018;" horiz-adv-x="204" 
d="M93 507q-27 -17 -46 -5q-18 11 -16 31.5t23 30.5q8 4 19 13t11 12q0 2 -8 4q-26 9 -36 39.5t4 56.5q19 36 61 35q21 0 38.5 -11.5t25.5 -31.5q4 -12 3 -40t-8 -47q-19 -56 -71 -87z" />
    <glyph glyph-name="parenleft" unicode="(" horiz-adv-x="414" 
d="M268 -122q-17 7 -30 16.5t-36 31.5q-108 108 -145 281q-11 51 -14 81t-3 88q0 74 6 109q12 64 39 141t58 130q34 62 59 84q8 7 22 13t23 6q4 0 19 -4q18 -6 31.5 -21t17.5 -34q3 -16 -2 -29.5t-24 -40.5q-34 -51 -59 -113q-53 -128 -53 -239q0 -144 53 -253
q31 -63 84 -113q28 -26 35.5 -36.5t12.5 -27.5q10 -41 -21 -64t-73 -6z" />
    <glyph glyph-name="parenright" unicode=")" horiz-adv-x="415" 
d="M90 -127q-14 4 -24.5 16t-13.5 26t1 30q4 17 12 27.5t35 36.5q54 50 84 113q53 109 53 253q0 111 -53 240q-25 61 -59 112q-19 28 -23.5 41t-1.5 29q3 19 16.5 34.5t32.5 20.5q14 4 19 4q9 0 23 -6t22 -13q24 -22 59 -83q30 -54 57.5 -131t38.5 -140q6 -36 6 -110
q0 -41 -1 -64.5t-4.5 -46t-10.5 -58.5q-29 -133 -102 -231q-14 -19 -41 -46.5t-41 -37.5q-43 -29 -84 -16z" />
    <glyph glyph-name="asterisk" unicode="*" horiz-adv-x="334" 
d="M155 442q-17 8 -20 30q-1 11 -2.5 11t-14.5 -13t-25 -14q-18 -2 -29.5 10.5t-8.5 29.5q2 10 32.5 39.5t30.5 31.5t-43 44q-31 31 -37.5 38.5t-7.5 16.5q-2 25 21 35q13 6 23.5 1t34.5 -28l28 -28l2 57l10 9q11 10 22 10q13 0 21 -5t11.5 -15t3.5 -28v-23l23 23
q18 17 23 20t15 3q25 0 33 -24q4 -12 -2.5 -22.5t-37.5 -42.5l-40 -41l26 -26q27 -26 29 -36q5 -19 -9 -33t-33 -8q-9 2 -19 12l-10 10l-2 -14q-1 -13 -8.5 -21.5t-17.5 -10.5t-22 2z" />
    <glyph glyph-name="plus" unicode="+" horiz-adv-x="513" 
d="M245 129q-31 7 -48 34q-4 6 -5 78l-1 71l-57 1q-57 1 -70 7q-32 14 -37.5 45.5t20.5 54.5q14 12 29.5 15.5t62.5 2.5h52l2 102l9 13q8 12 21.5 19.5t36.5 7.5t36.5 -7.5t21.5 -19.5l9 -13l1 -104h30q36 0 57 -2t33.5 -6.5t21.5 -13.5q17 -18 17 -42q0 -39 -38 -55
q-10 -4 -20 -5t-46 -1h-52v-64q0 -63 -4 -76q-8 -24 -32.5 -36.5t-49.5 -5.5z" />
    <glyph glyph-name="comma" unicode="," horiz-adv-x="195" 
d="M40 -80q-18 11 -16 31.5t23 30.5q8 5 19 13.5t11 11.5q0 2 -8 5q-18 6 -29 23.5t-11 39.5q0 29 19.5 48.5t49.5 19.5q14 0 26.5 -5.5t22.5 -15.5t14 -22q5 -13 3.5 -40.5t-7.5 -46.5q-19 -57 -71 -88q-27 -16 -46 -5z" />
    <glyph glyph-name="hyphen" unicode="-" horiz-adv-x="453" 
d="M74 344q-27 10 -39 34.5t-4.5 50.5t32.5 40q14 7 34.5 8.5t141.5 2.5q66 2 99.5 0t42.5 -4.5t20 -11.5q23 -20 23 -52q0 -30 -21 -50v-1q-15 -13 -37 -15.5t-139 -4.5h-1q-142 -1 -152 3z" />
    <glyph glyph-name="period" unicode="." horiz-adv-x="191" 
d="M64 7q-39 19 -36 66q2 35 31 53q14 8 36.5 8t36.5 -8t22 -22t8 -36.5t-8 -36.5q-18 -29 -55 -31q-20 -1 -35 7z" />
    <glyph glyph-name="slash" unicode="/" horiz-adv-x="408" 
d="M58 6q-19 7 -31 25t-12 40q0 13 9.5 36.5t56.5 133.5q70 161 128 296q62 143 70 153q19 22 53 22q19 0 34 -9q31 -19 33 -55l1 -19l-77 -178q-178 -413 -186 -424q-13 -16 -36 -22t-43 1z" />
    <glyph glyph-name="zero" unicode="0" horiz-adv-x="482" 
d="M286 7q-16 -5 -38.5 -6.5t-38.5 2.5q-69 18 -114 100t-55 207q-6 76 6.5 156t38.5 136q21 44 52 75t64 42q43 14 86 -3q59 -23 98.5 -95t53.5 -180q4 -39 3 -94.5t-7 -92.5q-12 -65 -33 -116t-50.5 -84t-65.5 -47zM252 156q29 33 44 110q5 28 7 77.5t-2 78.5
q-5 47 -20 90t-31 59l-10 10l-10 -11q-10 -11 -19 -30q-34 -71 -34.5 -176.5t33.5 -177.5q2 -5 5 -9.5t5.5 -9.5t5.5 -9t6 -7l5 -5t3 -2q2 0 12 12z" />
    <glyph glyph-name="one" unicode="1" horiz-adv-x="341" 
d="M204 1q-19 6 -32 21t-16 35q-3 15 -0.5 255t2 241t-26.5 -10q-62 -26 -96 11q-18 18 -17 47q1 33 24.5 50t116.5 51q25 9 40 15q28 12 55.5 1t38.5 -38q3 -8 3.5 -56.5t-1.5 -260.5q-3 -307 -6 -317q-8 -26 -33.5 -39t-51.5 -6z" />
    <glyph glyph-name="two" unicode="2" horiz-adv-x="494" 
d="M190 5q-52 2 -69 4t-30 8q-19 8 -31.5 28.5t-12.5 42.5q0 19 12 35.5t59 62.5q156 153 187 237q19 54 10 96.5t-44 59.5q-41 19 -71 -9q-6 -6 -13 -15t-11 -17.5t-4 -13.5q0 -22 -18 -41t-44 -24q-18 -4 -39 8t-30 30q-18 35 6.5 92.5t72.5 94.5q53 40 118 40
q39 0 74 -12.5t62.5 -35t47 -55t28.5 -70.5q5 -25 5.5 -60.5t-4.5 -59.5q-13 -60 -44.5 -115.5t-91.5 -124.5q-28 -32 -33 -36t-8 -9q-2 -4 4 -4l51 1q41 1 51.5 0.5t19.5 -4.5q26 -12 37 -35q12 -25 2.5 -51t-35.5 -38q-16 -8 -64 -10q-60 -3 -150 0z" />
    <glyph glyph-name="three" unicode="3" horiz-adv-x="512" 
d="M173 6q-35 3 -68 13t-47 22q-35 30 -25 71q4 14 18 29q31 32 86 13q63 -20 118.5 -3.5t76.5 62.5q7 16 6 36t-9.5 30.5t-22.5 18.5q-18 10 -36.5 13.5t-57.5 3.5q-47 1 -58 6q-27 13 -36 41.5t5 53.5q13 24 52 38q41 15 68 41q26 26 30.5 54.5t-17.5 32.5
q-15 3 -48.5 0.5t-52.5 -8.5q-38 -12 -63 1q-23 12 -32 34q-4 10 -4.5 27t3.5 26q4 10 13.5 20t18.5 15q31 16 91 22.5t100 -1.5q61 -12 98 -61t32 -112q-2 -29 -13 -60t-27 -51q-6 -9 -6 -10q31 -19 45 -30.5t26 -27.5q33 -44 39 -97.5t-16 -107.5q-32 -78 -110.5 -120.5
t-176.5 -34.5z" />
    <glyph glyph-name="four" unicode="4" horiz-adv-x="513" 
d="M372 9q-9 4 -20 14.5t-17 20.5q-4 8 -5 17.5t0 50.5l1 58l-22 -2q-21 -1 -110 -3q-70 -2 -91.5 0t-38.5 10q-26 13 -38.5 39t-5.5 55q7 26 57 115q68 119 133 257q22 46 28 54t21 16q21 11 44.5 7t39.5 -21q16 -18 17 -38t-12 -49q-22 -47 -68.5 -138.5t-74.5 -140.5
q-18 -31 -17.5 -31.5t71.5 1.5l71 1v69q0 50 1 61t5 20q16 31 52 36t60 -19q13 -14 16 -30.5t4 -83.5q2 -82 -1 -142q-3 -64 -4 -104q-2 -46 -5 -56q-3 -11 -13.5 -23t-21.5 -18q-28 -15 -56 -3z" />
    <glyph glyph-name="five" unicode="5" horiz-adv-x="490" 
d="M173 4q-43 8 -76 27.5t-45 43.5q-15 31 -4 58q8 19 25 30t37 11q23 0 53 -20q36 -25 82.5 -12t64.5 53q11 28 7 57t-23 55t-48 40q-26 12 -46 13t-60 -8q-16 -3 -21.5 -3t-17.5 3q-14 4 -28.5 16.5t-20.5 26.5q-6 13 -8 93q-3 86 -3 126l-1 45l9 19q9 18 23 28
q18 13 39 16t107 4q76 1 91 0.5t26 -5.5q34 -14 40 -50.5t-20 -61.5q-14 -13 -29 -16t-74 -4l-72 -1v-27q0 -26 2 -45l2 -18l28 -1q49 -3 94.5 -25t76.5 -57t52 -79t21.5 -91.5t-15.5 -94.5q-30 -78 -107 -119.5t-161 -26.5z" />
    <glyph glyph-name="six" unicode="6" horiz-adv-x="515" 
d="M211 5q-63 17 -107 69.5t-62 132.5q-6 28 -6 89q0 51 4 78t17 64q17 51 55 105t86.5 97.5t97.5 66.5q23 11 39 11q24 0 42.5 -13t24.5 -35q6 -19 0 -38q-8 -29 -44 -46q-60 -29 -120 -103q-32 -41 -32 -46q0 -1 40 -1q65 0 117 -25q65 -31 96 -90q23 -45 23 -98.5
t-23 -98.5q-22 -45 -60.5 -76t-87.5 -43q-22 -5 -51 -5t-49 5zM251 136q20 -3 42 6q12 5 24 17t18 26q25 54 -12 89q-42 42 -136 19l-15 -4l2 -23q4 -52 25.5 -88.5t51.5 -41.5z" />
    <glyph glyph-name="seven" unicode="7" horiz-adv-x="532" 
d="M332 43q-12 -26 -35.5 -37t-49.5 -2q-11 3 -24.5 18t-16.5 26q-5 16 -2.5 33t15.5 57q16 53 45 161q59 221 79 272q1 3 -4 4q-11 2 -160 -5h-1h-1q-65 -3 -78 2q-45 13 -49 62q-1 11 1.5 22t8 20t13.5 16.5t18 12.5q10 4 45.5 6t173.5 7q46 2 88 5q35 2 48 0.5t26 -10.5
q11 -8 20.5 -22.5t12.5 -27.5q4 -16 -0.5 -35.5t-25.5 -87.5q-46 -145 -89 -309q-11 -41 -23 -81.5t-21 -69.5t-14 -37z" />
    <glyph glyph-name="eight" unicode="8" horiz-adv-x="511" 
d="M213 1q-110 22 -155 120q-21 44 -20 94q1 46 20 102.5t46 93.5q8 12 8 14t-12 17q-27 34 -38 77t-2 81q9 42 37 73t70 45q24 7 55 7q50 -1 88 -21q82 -42 100 -126q7 -28 2.5 -69.5t-18.5 -78.5l-7 -19l16 -17q58 -59 70 -139.5t-26 -152.5q-11 -19 -34 -42.5t-43 -34.5
q-33 -19 -75.5 -25.5t-81.5 1.5zM263 136q21 1 36 8q36 19 38 71q0 39 -20 67t-68 55l-20 12l-12 -18q-13 -18 -22 -41q-3 -8 -6.5 -19.5t-6.5 -23t-5 -21.5t-2 -15q-1 -25 18 -48q24 -28 70 -27zM265 487q3 0 5 9q9 37 4.5 55t-24.5 29q-11 6 -26.5 6.5t-22.5 -4.5
q-9 -9 -4.5 -28t20.5 -34q9 -9 26 -21t22 -12z" />
    <glyph glyph-name="nine" unicode="9" horiz-adv-x="503" 
d="M130 4q-19 7 -31.5 24t-12.5 38q0 24 11.5 40t38.5 29q45 20 89 61q40 38 60 73q10 18 9.5 21.5t-12.5 2.5q-14 -2 -39 1q-71 7 -123.5 48t-74.5 106q-9 24 -10.5 55.5t3.5 55.5q13 59 54 102t100 59q19 5 52 5t52 -5q129 -34 164 -187q5 -22 6 -70t-3 -79
q-12 -93 -52 -171q-30 -60 -86 -113t-121 -84q-46 -23 -74 -12zM289 430q18 3 28 8l11 4v23q0 27 -6 51t-17.5 41t-27.5 25q-11 6 -32 6t-36 -8q-39 -21 -36 -71q2 -30 21 -50t51 -27q21 -5 44 -2z" />
    <glyph glyph-name="colon" unicode=":" horiz-adv-x="207" 
d="M83 376q-33 10 -46 41q-9 21 -1 48q3 11 13 22.5t21 16.5q12 7 31 7t30 -6q24 -13 34 -36q4 -10 4 -26.5t-4 -26.5q-10 -23 -34.5 -35t-47.5 -5zM55 116q20 21 47 22t47.5 -16.5t23.5 -46.5q3 -38 -26.5 -61t-65.5 -10q-21 7 -33 25t-12 40q0 27 19 47z" />
    <glyph glyph-name="semicolon" unicode=";" horiz-adv-x="207" 
d="M93 -68q-27 -16 -46 -5q-18 11 -16 31.5t23 30.5q8 5 19 13.5t11 11.5q0 2 -8 5q-26 9 -36 39.5t4 55.5q19 36 61 36q21 0 38.5 -12t24.5 -31q5 -13 3.5 -40.5t-7.5 -46.5q-19 -57 -71 -88zM79 376q-10 3 -23 14.5t-17 21.5q-6 12 -5.5 29.5t5.5 29.5q8 16 26.5 28
t36.5 12q9 0 23.5 -6t21.5 -13q23 -20 23 -51t-23 -51q-30 -27 -68 -14z" />
    <glyph glyph-name="less" unicode="&#x3c;" horiz-adv-x="452" 
d="M408 241q-29 -47 -98 -24q-37 13 -130.5 48.5t-105.5 40.5q-38 20 -43 61q-3 23 8 43t34 32q16 8 131 58q62 27 83 35.5t31 11.5t21 3q45 0 63 -39q4 -10 4.5 -28t-3.5 -28q-7 -16 -20.5 -25.5t-54.5 -27.5q-50 -21 -52 -23q-1 0 5 -3t16 -7t23 -8q43 -15 57.5 -22.5
t24.5 -17.5q17 -19 15 -49q-1 -18 -9 -31z" />
    <glyph glyph-name="equal" unicode="=" horiz-adv-x="538" 
d="M83 195q-31 9 -44 38t1 58q6 12 18.5 22.5t23.5 13.5q7 2 122.5 2t198.5 -1q37 -1 46.5 -2t17.5 -6q37 -22 36 -63q-1 -18 -9 -33q-16 -26 -41 -32q-10 -2 -160 -1q-147 1 -174 0q-23 0 -36 4zM84 392q-28 10 -40 40t2 56q6 11 18.5 22t23.5 13q10 3 181 3t180 -2
q16 -4 29.5 -16.5t18.5 -27.5q4 -9 3 -26t-5 -27q-7 -14 -22 -25t-31 -13q-9 -2 -144 -1h-168q-33 0 -46 4z" />
    <glyph glyph-name="greater" unicode="&#x3e;" horiz-adv-x="433" 
d="M76 205q-10 3 -20.5 12t-15.5 17t-6 21.5t2 22.5q9 24 45 46q108 66 110 70l-8 3.5t-21.5 8.5t-30.5 11q-60 21 -71 31q-21 18 -20.5 43.5t20.5 43.5q21 19 50 19q12 0 131.5 -42.5t134.5 -51.5q27 -17 28 -54q0 -18 -8 -31q-7 -12 -22.5 -23t-75.5 -46q-60 -36 -104 -63
q-42 -27 -56 -33q-13 -6 -31.5 -7.5t-30.5 2.5z" />
    <glyph glyph-name="question" unicode="?" horiz-adv-x="437" 
d="M259 -9q-20 -1 -34 6q-37 19 -37 62q0 20 8.5 35t24 24t35.5 9q31 0 50 -21t17 -53q-2 -35 -31 -53q-13 -8 -33 -9zM248 161q-38 10 -49 47q-3 12 -2.5 50t3.5 62q4 25 9 44t13 40.5t23 54.5q17 39 18.5 58t-10.5 34q-24 28 -64 8q-8 -3 -19.5 -11.5t-20 -16.5t-8.5 -11
q0 -6 -10.5 -17.5t-20.5 -16.5q-28 -16 -58 -4t-40 42q-10 28 8 63q20 38 63.5 70t90.5 44q54 14 104 -5q57 -21 89 -66q35 -49 35 -111q0 -28 -6.5 -51.5t-27.5 -72.5q-19 -46 -26 -73t-7 -60q0 -21 -2 -36t-6.5 -26.5t-12 -19t-18.5 -13.5q-26 -12 -48 -6z" />
    <glyph glyph-name="at" unicode="@" horiz-adv-x="798" 
d="M395 -3q-171 23 -266 118q-68 69 -90 168q-5 24 -5 63t5 64q22 100 90.5 173.5t170.5 104.5q92 28 182 23t152 -42q32 -18 57.5 -45.5t42.5 -61t24 -71.5q12 -60 2 -119.5t-40 -102.5q-38 -58 -99 -78q-21 -7 -50 -6q-21 1 -28.5 2.5t-22.5 8.5l-21 10l-21 -5
q-94 -24 -167 11q-30 14 -52.5 39.5t-32.5 57.5q-6 18 -6 47.5t8 52.5q32 87 131 112q22 6 86 6q44 1 55.5 0.5t21.5 -4.5q28 -12 37 -41q4 -13 4 -39q0 -33 7.5 -77.5t12.5 -44.5q4 0 13 10q26 28 29.5 82t-18.5 96q-34 65 -137 69q-53 3 -106 -10t-89 -37
q-44 -29 -71.5 -75.5t-31.5 -97.5q-4 -63 31 -118t97 -82q65 -28 163 -31q54 -2 66 -8q19 -8 30.5 -23.5t11.5 -33.5q-1 -38 -39 -58l-18 -10h-46q-46 -1 -73 3zM434 327q2 1 -3 32q-4 32 -4 34q-1 2 -9 2t-19 -2.5t-18 -4.5q-23 -10 -23 -32.5t23 -29.5q6 -2 28.5 -1.5
t24.5 2.5z" />
    <glyph glyph-name="A" unicode="A" horiz-adv-x="543" 
d="M433 -4q-11 5 -21.5 15.5t-14.5 20.5q-4 8 -7 35q-3 25 -10 62t-9 39q-4 4 -105 -3.5t-104 -11.5q-1 -3 -5 -38q-4 -36 -7 -48q-6 -20 -25.5 -33.5t-41.5 -13.5q-20 0 -38.5 13.5t-24.5 33.5q-5 12 -4 29t9 82q38 298 105 409q34 56 78 85.5t89 26.5q78 -6 122 -98
q19 -39 32 -91t33 -178q20 -117 28 -158q14 -67 16 -98t-5 -46q-5 -11 -16 -21.5t-21 -15.5q-25 -10 -53 3zM259.5 303q48.5 3 68.5 3l19 1l-1 10q-1 16 -12 75t-18 85q-4 17 -10.5 36t-12.5 32t-9 13t-17.5 -18.5t-22.5 -33.5q-36 -67 -56 -179l-6 -30l15 1q14 2 62.5 5z
" />
    <glyph glyph-name="A" unicode="&#xc5;" horiz-adv-x="543" 
d="M433 -4q-11 5 -21.5 15.5t-14.5 20.5q-4 8 -7 35q-3 25 -10 62t-9 39q-4 4 -105 -3.5t-104 -11.5q-1 -3 -5 -38q-4 -36 -7 -48q-6 -20 -25.5 -33.5t-41.5 -13.5q-20 0 -38.5 13.5t-24.5 33.5q-5 12 -4 29t9 82q38 298 105 409q34 56 78 85.5t89 26.5q78 -6 122 -98
q19 -39 32 -91t33 -178q20 -117 28 -158q14 -67 16 -98t-5 -46q-5 -11 -16 -21.5t-21 -15.5q-25 -10 -53 3zM259.5 303q48.5 3 68.5 3l19 1l-1 10q-1 16 -12 75t-18 85q-4 17 -10.5 36t-12.5 32t-9 13t-17.5 -18.5t-22.5 -33.5q-36 -67 -56 -179l-6 -30l15 1q14 2 62.5 5z
" />
    <glyph glyph-name="A" unicode="&#xc4;" horiz-adv-x="543" 
d="M433 -4q-11 5 -21.5 15.5t-14.5 20.5q-4 8 -7 35q-3 25 -10 62t-9 39q-4 4 -105 -3.5t-104 -11.5q-1 -3 -5 -38q-4 -36 -7 -48q-6 -20 -25.5 -33.5t-41.5 -13.5q-20 0 -38.5 13.5t-24.5 33.5q-5 12 -4 29t9 82q38 298 105 409q34 56 78 85.5t89 26.5q78 -6 122 -98
q19 -39 32 -91t33 -178q20 -117 28 -158q14 -67 16 -98t-5 -46q-5 -11 -16 -21.5t-21 -15.5q-25 -10 -53 3zM259.5 303q48.5 3 68.5 3l19 1l-1 10q-1 16 -12 75t-18 85q-4 17 -10.5 36t-12.5 32t-9 13t-17.5 -18.5t-22.5 -33.5q-36 -67 -56 -179l-6 -30l15 1q14 2 62.5 5z
" />
    <glyph glyph-name="A" unicode="&#xc3;" horiz-adv-x="543" 
d="M433 -4q-11 5 -21.5 15.5t-14.5 20.5q-4 8 -7 35q-3 25 -10 62t-9 39q-4 4 -105 -3.5t-104 -11.5q-1 -3 -5 -38q-4 -36 -7 -48q-6 -20 -25.5 -33.5t-41.5 -13.5q-20 0 -38.5 13.5t-24.5 33.5q-5 12 -4 29t9 82q38 298 105 409q34 56 78 85.5t89 26.5q78 -6 122 -98
q19 -39 32 -91t33 -178q20 -117 28 -158q14 -67 16 -98t-5 -46q-5 -11 -16 -21.5t-21 -15.5q-25 -10 -53 3zM259.5 303q48.5 3 68.5 3l19 1l-1 10q-1 16 -12 75t-18 85q-4 17 -10.5 36t-12.5 32t-9 13t-17.5 -18.5t-22.5 -33.5q-36 -67 -56 -179l-6 -30l15 1q14 2 62.5 5z
" />
    <glyph glyph-name="A" unicode="&#xc2;" horiz-adv-x="543" 
d="M433 -4q-11 5 -21.5 15.5t-14.5 20.5q-4 8 -7 35q-3 25 -10 62t-9 39q-4 4 -105 -3.5t-104 -11.5q-1 -3 -5 -38q-4 -36 -7 -48q-6 -20 -25.5 -33.5t-41.5 -13.5q-20 0 -38.5 13.5t-24.5 33.5q-5 12 -4 29t9 82q38 298 105 409q34 56 78 85.5t89 26.5q78 -6 122 -98
q19 -39 32 -91t33 -178q20 -117 28 -158q14 -67 16 -98t-5 -46q-5 -11 -16 -21.5t-21 -15.5q-25 -10 -53 3zM259.5 303q48.5 3 68.5 3l19 1l-1 10q-1 16 -12 75t-18 85q-4 17 -10.5 36t-12.5 32t-9 13t-17.5 -18.5t-22.5 -33.5q-36 -67 -56 -179l-6 -30l15 1q14 2 62.5 5z
" />
    <glyph glyph-name="A" unicode="&#xc1;" horiz-adv-x="543" 
d="M433 -4q-11 5 -21.5 15.5t-14.5 20.5q-4 8 -7 35q-3 25 -10 62t-9 39q-4 4 -105 -3.5t-104 -11.5q-1 -3 -5 -38q-4 -36 -7 -48q-6 -20 -25.5 -33.5t-41.5 -13.5q-20 0 -38.5 13.5t-24.5 33.5q-5 12 -4 29t9 82q38 298 105 409q34 56 78 85.5t89 26.5q78 -6 122 -98
q19 -39 32 -91t33 -178q20 -117 28 -158q14 -67 16 -98t-5 -46q-5 -11 -16 -21.5t-21 -15.5q-25 -10 -53 3zM259.5 303q48.5 3 68.5 3l19 1l-1 10q-1 16 -12 75t-18 85q-4 17 -10.5 36t-12.5 32t-9 13t-17.5 -18.5t-22.5 -33.5q-36 -67 -56 -179l-6 -30l15 1q14 2 62.5 5z
" />
    <glyph glyph-name="A" unicode="&#xc0;" horiz-adv-x="543" 
d="M433 -4q-11 5 -21.5 15.5t-14.5 20.5q-4 8 -7 35q-3 25 -10 62t-9 39q-4 4 -105 -3.5t-104 -11.5q-1 -3 -5 -38q-4 -36 -7 -48q-6 -20 -25.5 -33.5t-41.5 -13.5q-20 0 -38.5 13.5t-24.5 33.5q-5 12 -4 29t9 82q38 298 105 409q34 56 78 85.5t89 26.5q78 -6 122 -98
q19 -39 32 -91t33 -178q20 -117 28 -158q14 -67 16 -98t-5 -46q-5 -11 -16 -21.5t-21 -15.5q-25 -10 -53 3zM259.5 303q48.5 3 68.5 3l19 1l-1 10q-1 16 -12 75t-18 85q-4 17 -10.5 36t-12.5 32t-9 13t-17.5 -18.5t-22.5 -33.5q-36 -67 -56 -179l-6 -30l15 1q14 2 62.5 5z
" />
    <glyph glyph-name="B" unicode="B" horiz-adv-x="531" 
d="M145 4q-36 4 -56.5 15.5t-32.5 35.5l-10 19l-1 121q-2 131 -4 254q-2 134 -5 147q-4 22 10 51q13 26 40.5 35t102.5 13q107 6 172 -9.5t105 -55.5q18 -18 28.5 -36t15.5 -38.5t5 -45.5q0 -30 -7 -53q-28 -80 -108 -127l-12 -7l24 -25q59 -60 54 -129q-1 -23 -7 -37
q-18 -49 -70.5 -82.5t-124.5 -42.5q-23 -4 -62 -5t-57 2zM261 147q15 2 31 8.5t26 13t10 11.5q0 1 -1 3.5t-3.5 5.5t-5.5 6.5t-6.5 7t-8 7.5t-8.5 7q-31 23 -80 34q-4 0 -10 2q-18 4 -21 -0.5t-3 -37.5v-18v-58l30 2q28 2 50 6zM219 412q92 18 133 53q6 6 12.5 14.5t10 17.5
t3.5 15q0 10 -11 20.5t-27 14.5q-23 8 -65.5 10.5t-77.5 -0.5l-19 -2v-76q1 -74 5 -74q7 1 36 7z" />
    <glyph glyph-name="C" unicode="C" horiz-adv-x="486" 
d="M265 -7q-46 7 -85 30q-122 72 -154 248q-6 32 -6 86t7 85q17 88 61.5 150t109.5 89q26 11 45.5 14t54.5 3q36 0 58.5 -4.5t51.5 -18.5t42 -30.5t13 -40.5t-13.5 -41.5t-35.5 -24.5q-27 -7 -56 8q-31 16 -64 16t-59 -17q-21 -13 -40.5 -45t-28.5 -68q-6 -25 -7.5 -65.5
t3.5 -68.5q20 -124 96 -160q18 -8 39 -8q14 0 22.5 2t14 7t8.5 15q13 34 46.5 43.5t60.5 -13.5q14 -11 19 -23t5 -34q0 -25 -9 -44q-14 -29 -45.5 -53t-67.5 -33q-16 -4 -43 -5.5t-43 1.5z" />
    <glyph glyph-name="C" unicode="&#xc7;" horiz-adv-x="486" 
d="M265 -7q-46 7 -85 30q-122 72 -154 248q-6 32 -6 86t7 85q17 88 61.5 150t109.5 89q26 11 45.5 14t54.5 3q36 0 58.5 -4.5t51.5 -18.5t42 -30.5t13 -40.5t-13.5 -41.5t-35.5 -24.5q-27 -7 -56 8q-31 16 -64 16t-59 -17q-21 -13 -40.5 -45t-28.5 -68q-6 -25 -7.5 -65.5
t3.5 -68.5q20 -124 96 -160q18 -8 39 -8q14 0 22.5 2t14 7t8.5 15q13 34 46.5 43.5t60.5 -13.5q14 -11 19 -23t5 -34q0 -25 -9 -44q-14 -29 -45.5 -53t-67.5 -33q-16 -4 -43 -5.5t-43 1.5z" />
    <glyph glyph-name="D" unicode="D" horiz-adv-x="551" 
d="M157 6q-22 4 -51.5 14.5t-39.5 18.5q-11 9 -17 23l-7 14l2 578l8 14q14 25 46.5 35t87.5 6q158 -13 241 -94q73 -71 99 -183q6 -27 6.5 -78t-5.5 -79q-15 -72 -51 -128.5t-90 -91.5q-47 -31 -111 -44.5t-118 -4.5zM183 137q2 -2 23 -1.5t35 3.5q73 15 113.5 71t40.5 142
q-1 65 -29.5 119.5t-75.5 77.5q-38 19 -93 25l-16 2v-219q0 -218 2 -220z" />
    <glyph glyph-name="E" unicode="E" horiz-adv-x="418" 
d="M99 6q-21 7 -33 23q-10 14 -12.5 42.5t-6.5 183.5q-4 112 -9 287q-2 92 0 100q9 33 49 50l16 8l110 3q110 3 120 0q42 -9 52 -47.5t-22 -66.5q-13 -12 -31.5 -15.5t-81.5 -4.5l-73 -2v-25q0 -25 2 -70l2 -46l51 2q37 1 46.5 0.5t20.5 -4.5q23 -9 36 -27.5t10 -40.5
q-4 -35 -41 -54q-12 -6 -65 -9l-54 -2v-36q0 -36 2 -77l2 -41l79 2q59 1 71.5 0.5t22.5 -4.5q17 -7 27.5 -20t13.5 -29t-2 -34q-3 -10 -17 -24t-25 -18q-19 -5 -132 -7t-128 3z" />
    <glyph glyph-name="E" unicode="&#xcb;" horiz-adv-x="418" 
d="M99 6q-21 7 -33 23q-10 14 -12.5 42.5t-6.5 183.5q-4 112 -9 287q-2 92 0 100q9 33 49 50l16 8l110 3q110 3 120 0q42 -9 52 -47.5t-22 -66.5q-13 -12 -31.5 -15.5t-81.5 -4.5l-73 -2v-25q0 -25 2 -70l2 -46l51 2q37 1 46.5 0.5t20.5 -4.5q23 -9 36 -27.5t10 -40.5
q-4 -35 -41 -54q-12 -6 -65 -9l-54 -2v-36q0 -36 2 -77l2 -41l79 2q59 1 71.5 0.5t22.5 -4.5q17 -7 27.5 -20t13.5 -29t-2 -34q-3 -10 -17 -24t-25 -18q-19 -5 -132 -7t-128 3z" />
    <glyph glyph-name="E" unicode="&#xca;" horiz-adv-x="418" 
d="M99 6q-21 7 -33 23q-10 14 -12.5 42.5t-6.5 183.5q-4 112 -9 287q-2 92 0 100q9 33 49 50l16 8l110 3q110 3 120 0q42 -9 52 -47.5t-22 -66.5q-13 -12 -31.5 -15.5t-81.5 -4.5l-73 -2v-25q0 -25 2 -70l2 -46l51 2q37 1 46.5 0.5t20.5 -4.5q23 -9 36 -27.5t10 -40.5
q-4 -35 -41 -54q-12 -6 -65 -9l-54 -2v-36q0 -36 2 -77l2 -41l79 2q59 1 71.5 0.5t22.5 -4.5q17 -7 27.5 -20t13.5 -29t-2 -34q-3 -10 -17 -24t-25 -18q-19 -5 -132 -7t-128 3z" />
    <glyph glyph-name="E" unicode="&#xc9;" horiz-adv-x="418" 
d="M99 6q-21 7 -33 23q-10 14 -12.5 42.5t-6.5 183.5q-4 112 -9 287q-2 92 0 100q9 33 49 50l16 8l110 3q110 3 120 0q42 -9 52 -47.5t-22 -66.5q-13 -12 -31.5 -15.5t-81.5 -4.5l-73 -2v-25q0 -25 2 -70l2 -46l51 2q37 1 46.5 0.5t20.5 -4.5q23 -9 36 -27.5t10 -40.5
q-4 -35 -41 -54q-12 -6 -65 -9l-54 -2v-36q0 -36 2 -77l2 -41l79 2q59 1 71.5 0.5t22.5 -4.5q17 -7 27.5 -20t13.5 -29t-2 -34q-3 -10 -17 -24t-25 -18q-19 -5 -132 -7t-128 3z" />
    <glyph glyph-name="E" unicode="&#xc8;" horiz-adv-x="418" 
d="M99 6q-21 7 -33 23q-10 14 -12.5 42.5t-6.5 183.5q-4 112 -9 287q-2 92 0 100q9 33 49 50l16 8l110 3q110 3 120 0q42 -9 52 -47.5t-22 -66.5q-13 -12 -31.5 -15.5t-81.5 -4.5l-73 -2v-25q0 -25 2 -70l2 -46l51 2q37 1 46.5 0.5t20.5 -4.5q23 -9 36 -27.5t10 -40.5
q-4 -35 -41 -54q-12 -6 -65 -9l-54 -2v-36q0 -36 2 -77l2 -41l79 2q59 1 71.5 0.5t22.5 -4.5q17 -7 27.5 -20t13.5 -29t-2 -34q-3 -10 -17 -24t-25 -18q-19 -5 -132 -7t-128 3z" />
    <glyph glyph-name="F" unicode="F" horiz-adv-x="453" 
d="M160 12q-12 -10 -30 -13.5t-32 0.5q-30 8 -46 36q-4 9 -5.5 46.5t-5.5 286.5q-4 264 -1 272q9 32 42 44q5 2 9.5 3t23.5 1.5t45 1t85 0.5q152 0 161 -3q31 -9 43.5 -36.5t-3.5 -54.5q-6 -11 -12.5 -16.5t-16.5 -10.5t-33 -6.5t-50 -2.5t-80 -1l-76 -1v-82
q1 -82 2.5 -84.5t58.5 -0.5t67 -1q26 -6 41 -30q8 -13 8 -31q0 -35 -26 -52q-14 -10 -30 -12.5t-63 -2.5l-55 -1l4 -212l-7 -15q-8 -14 -18 -22z" />
    <glyph glyph-name="G" unicode="G" horiz-adv-x="578" 
d="M258 14q-40 10 -77 32q-72 40 -114.5 107.5t-49.5 152.5q-3 27 2 70t13 69q36 116 133 189q72 55 145 61.5t136 -37.5q10 -6 19 -14.5t17.5 -17.5t16 -18.5t13 -19.5t10 -19.5t7.5 -18.5q5 -21 -3 -39.5t-24 -28.5t-36.5 -12t-40.5 10q-21 14 -29 36q-9 23 -35 41
q-24 15 -57.5 4.5t-70.5 -44.5q-54 -50 -71 -122q-5 -18 -6.5 -53.5t2 -52.5t15.5 -45t31 -50q30 -32 65 -47q16 -7 45 -9.5t46 3.5q27 10 44 39q5 8 9.5 18.5t6.5 18t1 9.5q-2 2 -51 1q-52 -1 -70 3t-33 20q-17 18 -18 40q-1 12 5.5 24.5t17.5 22.5t24 14q12 4 79.5 6
t92.5 -1q40 -5 64 -31q34 -37 28 -104.5t-47 -124.5q-8 -10 -19 -21t-23.5 -20.5t-25.5 -17.5t-24 -12q-80 -31 -163 -11z" />
    <glyph glyph-name="H" unicode="H" horiz-adv-x="581" 
d="M97 10q-25 9 -38 33l-7 15l-3 120q-11 382 -12 430t4 59q10 27 39 38.5t54 -1.5q22 -10 34 -32q4 -7 5.5 -29t3.5 -123q4 -141 5 -161l2 -20l106 2q106 2 107 3t-2 120q-4 124 -3.5 158.5t5.5 44.5q2 4 5 8.5t7 8t8.5 7t9.5 6.5t10 5q24 9 50 -2.5t37 -35.5q3 -9 5 -52
t8 -297q1 -15 2 -42q4 -171 2.5 -201.5t-15.5 -43.5l-3 -3q-14 -13 -25 -16q-29 -8 -52 2q-11 5 -22.5 17.5t-14.5 23.5q-4 12 -6 84l-2 73h-14q-15 -1 -107 -3l-94 -2l2 -73q1 -54 0.5 -65t-4.5 -21q-6 -11 -18.5 -22t-23.5 -14q-23 -7 -45 1z" />
    <glyph glyph-name="I" unicode="I" horiz-adv-x="226" 
d="M149 14q-11 -6 -28 -7.5t-29 2.5q-24 9 -37 32q-1 1 -2 3q-5 8 -6.5 40.5t-2.5 221.5q-1 48 -1 75q-3 260 2 283q3 13 16 25q22 21 54 19t50 -27l3 -3q8 -9 9.5 -55t4.5 -312q1 -57 1 -89l2 -162l-6 -13q-10 -21 -30 -33z" />
    <glyph glyph-name="I" unicode="&#xcf;" horiz-adv-x="226" 
d="M149 14q-11 -6 -28 -7.5t-29 2.5q-24 9 -37 32q-1 1 -2 3q-5 8 -6.5 40.5t-2.5 221.5q-1 48 -1 75q-3 260 2 283q3 13 16 25q22 21 54 19t50 -27l3 -3q8 -9 9.5 -55t4.5 -312q1 -57 1 -89l2 -162l-6 -13q-10 -21 -30 -33z" />
    <glyph glyph-name="I" unicode="&#xce;" horiz-adv-x="226" 
d="M149 14q-11 -6 -28 -7.5t-29 2.5q-24 9 -37 32q-1 1 -2 3q-5 8 -6.5 40.5t-2.5 221.5q-1 48 -1 75q-3 260 2 283q3 13 16 25q22 21 54 19t50 -27l3 -3q8 -9 9.5 -55t4.5 -312q1 -57 1 -89l2 -162l-6 -13q-10 -21 -30 -33z" />
    <glyph glyph-name="I" unicode="&#xcd;" horiz-adv-x="226" 
d="M149 14q-11 -6 -28 -7.5t-29 2.5q-24 9 -37 32q-1 1 -2 3q-5 8 -6.5 40.5t-2.5 221.5q-1 48 -1 75q-3 260 2 283q3 13 16 25q22 21 54 19t50 -27l3 -3q8 -9 9.5 -55t4.5 -312q1 -57 1 -89l2 -162l-6 -13q-10 -21 -30 -33z" />
    <glyph glyph-name="I" unicode="&#xcc;" horiz-adv-x="226" 
d="M149 14q-11 -6 -28 -7.5t-29 2.5q-24 9 -37 32q-1 1 -2 3q-5 8 -6.5 40.5t-2.5 221.5q-1 48 -1 75q-3 260 2 283q3 13 16 25q22 21 54 19t50 -27l3 -3q8 -9 9.5 -55t4.5 -312q1 -57 1 -89l2 -162l-6 -13q-10 -21 -30 -33z" />
    <glyph glyph-name="J" unicode="J" horiz-adv-x="449" 
d="M162 8q-39 6 -75 24t-56 43q-24 29 -24 60q0 20 8 32q15 25 43.5 31t52.5 -9q11 -7 22 -22.5t25 -21.5t38 -6q22 0 37 8q28 15 38 55q11 47 -1 323l-2 40h-82q-73 0 -91.5 3t-33.5 18q-25 23 -21 54t33 48l14 8l129 1q130 1 139 -2q27 -8 40 -33q6 -11 7.5 -23.5
t4.5 -71.5q14 -309 2 -376q-7 -45 -24 -76q-31 -58 -92 -87t-131 -20z" />
    <glyph glyph-name="K" unicode="K" horiz-adv-x="493" 
d="M100 7q-19 4 -34 17.5t-19 31.5q-2 8 -4.5 212t-2.5 333v50l8 14q20 32 59 32.5t61 -31.5l8 -12l2 -79q1 -79 2.5 -80t55.5 46q99 85 120 102t33 21q20 5 41 0q33 -9 44.5 -39t-7.5 -55q-8 -10 -129.5 -115t-121.5 -107t127 -117q103 -93 121.5 -113t18.5 -40
q0 -33 -29 -51.5t-63 -8.5q-8 3 -17 9.5t-28 23t-67 59.5l-96 87v-144l-7 -13q-11 -19 -32 -28t-44 -5z" />
    <glyph glyph-name="L" unicode="L" horiz-adv-x="451" 
d="M100 2q-19 6 -32 20t-17 33q-3 18 -8.5 300.5t-2.5 292.5q7 27 35 40q13 7 30.5 7.5t28.5 -5.5q23 -11 34 -32q6 -10 7 -40t6 -251q6 -231 7 -231.5t29 0.5t63 3.5t53 4.5q41 5 57 4q31 -1 50.5 -24.5t13.5 -51.5q-6 -26 -27.5 -39.5t-63.5 -18.5q-52 -7 -172 -11
q-38 -1 -58 -3q-19 -1 -33 2z" />
    <glyph glyph-name="M" unicode="M" horiz-adv-x="685" 
d="M545 10q-24 9 -35 30l-8 13l1 96q0 96 2 163q0 62 -2 62q-4 -5 -50 -80q-21 -35 -30.5 -51t-16 -23.5t-13.5 -13.5q-33 -28 -72 -17q-19 5 -31 20.5t-55 86.5l-52 89l-1 -21q-1 -21 2 -161q2 -93 1.5 -118.5t-2.5 -32.5q-15 -39 -60 -43q-21 -2 -39.5 7t-27.5 27
q-6 9 -8 61.5t-7 305.5q-5 230 -2 241q9 29 40 41t60 -3q22 -11 38.5 -33.5t81.5 -132.5q81 -138 84 -142q1 -1 5.5 5t14.5 21.5t25 40.5t39 64q80 133 88 143q13 16 38 21.5t45 -3.5q14 -6 27 -18l4 -4q14 -11 16 -44t-1 -217q0 -35 -1 -54q-3 -278 -8 -290q0 -1 -1 -2
q-11 -23 -35 -33q-10 -5 -27 -5t-27 4z" />
    <glyph glyph-name="N" unicode="N" horiz-adv-x="591" 
d="M97 9q-19 5 -32.5 19t-17.5 32q-2 14 -4 301l-2 288l8 14q17 33 55 38.5t62 -21.5q10 -10 71 -108q60 -96 90.5 -145t50 -79.5t24.5 -37t5 -4.5q1 5 5 180q3 125 4.5 152t5.5 36q16 37 58 40t63 -31q8 -14 10 -26.5t1 -41.5q-2 -33 -8 -283v-33q-5 -181 -7.5 -213.5
t-16.5 -45.5q-2 -1 -3 -2q-23 -22 -57 -22q-24 0 -39 12t-39 50q-16 26 -57 91q-16 26 -90 144q-52 83 -54 85q0 1 -0.5 -21.5t-0.5 -61.5v-85l2 -171l-8 -15q-13 -25 -44 -34q-18 -5 -35 -1z" />
    <glyph glyph-name="N" unicode="&#xd1;" horiz-adv-x="591" 
d="M97 9q-19 5 -32.5 19t-17.5 32q-2 14 -4 301l-2 288l8 14q17 33 55 38.5t62 -21.5q10 -10 71 -108q60 -96 90.5 -145t50 -79.5t24.5 -37t5 -4.5q1 5 5 180q3 125 4.5 152t5.5 36q16 37 58 40t63 -31q8 -14 10 -26.5t1 -41.5q-2 -33 -8 -283v-33q-5 -181 -7.5 -213.5
t-16.5 -45.5q-2 -1 -3 -2q-23 -22 -57 -22q-24 0 -39 12t-39 50q-16 26 -57 91q-16 26 -90 144q-52 83 -54 85q0 1 -0.5 -21.5t-0.5 -61.5v-85l2 -171l-8 -15q-13 -25 -44 -34q-18 -5 -35 -1z" />
    <glyph glyph-name="O" unicode="O" horiz-adv-x="562" 
d="M245 6q-80 15 -138 83t-81 172q-6 28 -6 90.5t6 90.5q26 119 96 189q59 58 136 68q32 4 64 -2.5t62 -23.5t55 -42q71 -71 96 -189q6 -28 6 -88q0 -49 -3 -73.5t-15 -63.5q-26 -87 -83.5 -144t-128.5 -68q-33 -5 -66 1zM314 151q7 3 15 9.5t16 15t15 18t12 18.5
q32 62 32 140q0 58 -17 105.5t-47 76.5q-61 57 -121 -3q-19 -20 -34 -49q-17 -35 -21.5 -58.5t-4.5 -71.5q0 -54 7 -81q16 -59 48 -94q48 -52 100 -26z" />
    <glyph glyph-name="O" unicode="&#xd8;" horiz-adv-x="562" 
d="M245 6q-80 15 -138 83t-81 172q-6 28 -6 90.5t6 90.5q26 119 96 189q59 58 136 68q32 4 64 -2.5t62 -23.5t55 -42q71 -71 96 -189q6 -28 6 -88q0 -49 -3 -73.5t-15 -63.5q-26 -87 -83.5 -144t-128.5 -68q-33 -5 -66 1zM314 151q7 3 15 9.5t16 15t15 18t12 18.5
q32 62 32 140q0 58 -17 105.5t-47 76.5q-61 57 -121 -3q-19 -20 -34 -49q-17 -35 -21.5 -58.5t-4.5 -71.5q0 -54 7 -81q16 -59 48 -94q48 -52 100 -26z" />
    <glyph glyph-name="O" unicode="&#xd6;" horiz-adv-x="562" 
d="M245 6q-80 15 -138 83t-81 172q-6 28 -6 90.5t6 90.5q26 119 96 189q59 58 136 68q32 4 64 -2.5t62 -23.5t55 -42q71 -71 96 -189q6 -28 6 -88q0 -49 -3 -73.5t-15 -63.5q-26 -87 -83.5 -144t-128.5 -68q-33 -5 -66 1zM314 151q7 3 15 9.5t16 15t15 18t12 18.5
q32 62 32 140q0 58 -17 105.5t-47 76.5q-61 57 -121 -3q-19 -20 -34 -49q-17 -35 -21.5 -58.5t-4.5 -71.5q0 -54 7 -81q16 -59 48 -94q48 -52 100 -26z" />
    <glyph glyph-name="O" unicode="&#xd5;" horiz-adv-x="562" 
d="M245 6q-80 15 -138 83t-81 172q-6 28 -6 90.5t6 90.5q26 119 96 189q59 58 136 68q32 4 64 -2.5t62 -23.5t55 -42q71 -71 96 -189q6 -28 6 -88q0 -49 -3 -73.5t-15 -63.5q-26 -87 -83.5 -144t-128.5 -68q-33 -5 -66 1zM314 151q7 3 15 9.5t16 15t15 18t12 18.5
q32 62 32 140q0 58 -17 105.5t-47 76.5q-61 57 -121 -3q-19 -20 -34 -49q-17 -35 -21.5 -58.5t-4.5 -71.5q0 -54 7 -81q16 -59 48 -94q48 -52 100 -26z" />
    <glyph glyph-name="O" unicode="&#xd4;" horiz-adv-x="562" 
d="M245 6q-80 15 -138 83t-81 172q-6 28 -6 90.5t6 90.5q26 119 96 189q59 58 136 68q32 4 64 -2.5t62 -23.5t55 -42q71 -71 96 -189q6 -28 6 -88q0 -49 -3 -73.5t-15 -63.5q-26 -87 -83.5 -144t-128.5 -68q-33 -5 -66 1zM314 151q7 3 15 9.5t16 15t15 18t12 18.5
q32 62 32 140q0 58 -17 105.5t-47 76.5q-61 57 -121 -3q-19 -20 -34 -49q-17 -35 -21.5 -58.5t-4.5 -71.5q0 -54 7 -81q16 -59 48 -94q48 -52 100 -26z" />
    <glyph glyph-name="O" unicode="&#xd3;" horiz-adv-x="562" 
d="M245 6q-80 15 -138 83t-81 172q-6 28 -6 90.5t6 90.5q26 119 96 189q59 58 136 68q32 4 64 -2.5t62 -23.5t55 -42q71 -71 96 -189q6 -28 6 -88q0 -49 -3 -73.5t-15 -63.5q-26 -87 -83.5 -144t-128.5 -68q-33 -5 -66 1zM314 151q7 3 15 9.5t16 15t15 18t12 18.5
q32 62 32 140q0 58 -17 105.5t-47 76.5q-61 57 -121 -3q-19 -20 -34 -49q-17 -35 -21.5 -58.5t-4.5 -71.5q0 -54 7 -81q16 -59 48 -94q48 -52 100 -26z" />
    <glyph glyph-name="O" unicode="&#xd2;" horiz-adv-x="562" 
d="M245 6q-80 15 -138 83t-81 172q-6 28 -6 90.5t6 90.5q26 119 96 189q59 58 136 68q32 4 64 -2.5t62 -23.5t55 -42q71 -71 96 -189q6 -28 6 -88q0 -49 -3 -73.5t-15 -63.5q-26 -87 -83.5 -144t-128.5 -68q-33 -5 -66 1zM314 151q7 3 15 9.5t16 15t15 18t12 18.5
q32 62 32 140q0 58 -17 105.5t-47 76.5q-61 57 -121 -3q-19 -20 -34 -49q-17 -35 -21.5 -58.5t-4.5 -71.5q0 -54 7 -81q16 -59 48 -94q48 -52 100 -26z" />
    <glyph glyph-name="P" unicode="P" horiz-adv-x="496" 
d="M89 4q-11 4 -21.5 14.5t-15.5 20.5q-4 9 -5.5 49.5t-4.5 246.5q-5 284 -1 296q4 13 18 26t29 17q49 14 126 14q52 0 75.5 -4t55.5 -18q65 -30 103 -86q40 -58 40 -121q0 -48 -20 -89q-31 -64 -96.5 -103t-156.5 -48l-33 -4l1 -84q0 -63 -0.5 -75.5t-4.5 -20.5
q-13 -22 -36 -32q-9 -3 -27 -3t-26 4zM221 352q66 11 102 45.5t25 77.5q-14 49 -63 72q-13 7 -21.5 8t-39.5 2q-42 1 -44.5 -1.5t-0.5 -104.5l1 -103h8q7 0 33 4z" />
    <glyph glyph-name="Q" unicode="Q" horiz-adv-x="565" 
d="M413 -60q-14 5 -22.5 13t-26.5 34q-7 11 -11.5 17t-7.5 8t-5 2q-4 -2 -30 -6q-26 -5 -52 -2q-84 11 -146 79.5t-86 177.5q-6 28 -6 90.5t6 90.5q26 119 96 189q59 58 136 68q32 4 64 -2.5t62 -23.5t55 -42q71 -71 96 -188q6 -29 6 -87q0 -35 -1.5 -57t-5.5 -42t-13 -47
q-17 -52 -46 -94q-15 -22 -15 -23.5t19 -30.5q17 -25 21 -34.5t4 -24.5q0 -23 -13.5 -41.5t-34.5 -24.5t-43 1zM254 149l-1 1.5t-2.5 4t-3.5 5.5q-16 26 -16 48q0 28 19.5 48t47.5 20q22 0 37 -9.5t29 -31.5l10 -15l4 8q18 34 24 89t-4 102q-15 76 -59 117q-60 57 -120 -3
q-19 -19 -34 -49q-17 -35 -21.5 -58.5t-4.5 -71.5q0 -54 7 -81q10 -38 30.5 -70t43.5 -47q13 -7 14 -7z" />
    <glyph glyph-name="R" unicode="R" horiz-adv-x="507" 
d="M89 4q-10 4 -21 14.5t-16 20.5q-4 9 -5 49.5t-5 248.5q0 21 -1 59q-3 184 -1 217t16 44l4 4q33 29 154 30q37 0 57 -2t36 -6.5t38 -14.5q83 -38 123 -120q15 -29 19 -66t-4 -68q-13 -59 -60 -105.5t-115 -70.5q-15 -5 -15 -7q0 -1 2 -2q4 -3 77 -56q48 -35 61.5 -46
t17.5 -20q7 -12 7.5 -29t-5.5 -28q-10 -18 -26 -28t-36 -10q-18 0 -34.5 9.5t-88.5 61.5q-79 56 -81.5 58t-2.5 -47q0 -33 -1 -42t-5 -17q-13 -22 -36 -32q-9 -3 -27 -3t-26 4zM221 354q66 10 102 45t25 78q-13 49 -63 73q-13 6 -21 7t-39 2q-43 1 -45.5 -1.5t-0.5 -104.5
l1 -103h8q7 0 33 4z" />
    <glyph glyph-name="S" unicode="S" horiz-adv-x="453" 
d="M175 1l-24 4q-40 7 -69 27q-25 18 -28.5 47t17.5 49q36 34 87 11q18 -8 44.5 -8t42.5 6q14 5 26 14.5t15 18.5q4 12 2 25t-8.5 26t-16.5 23q-15 15 -74 38q-96 38 -135 88q-38 51 -38 115q0 48 22 88q16 30 43 56q82 78 203 55q78 -15 120 -57q20 -21 25.5 -37.5
t-0.5 -35.5q-8 -28 -35 -40q-46 -21 -87 19q-24 23 -68 25q-17 1 -22.5 0t-16.5 -6q-29 -14 -41 -43t2 -54q9 -16 28 -28t68 -32q39 -15 60 -27q73 -41 101 -121q8 -23 8 -58q0 -29 -3.5 -45t-15.5 -38q-13 -24 -34.5 -43.5t-49 -34t-59.5 -21.5q-17 -4 -47.5 -6t-41.5 0z
" />
    <glyph glyph-name="T" unicode="T" horiz-adv-x="548" 
d="M254 2q-11 4 -24.5 17.5t-16.5 24.5q-4 12 -3 266l1 254l-23 -1q-23 -2 -67 -6q-43 -5 -60 -4.5t-28 5.5q-23 12 -33 34q-4 9 -4 24.5t4.5 25.5t18 21.5t23.5 14.5q20 5 129 14q46 4 125 3.5t110 -4.5q71 -10 92 -16t36 -20q22 -22 17 -52.5t-33 -43.5q-17 -8 -31.5 -9
t-50.5 5q-44 7 -66 8l-21 2v-251q0 -251 -2 -261q-2 -12 -11.5 -25t-20.5 -20q-13 -7 -32 -8t-29 2z" />
    <glyph glyph-name="U" unicode="U" horiz-adv-x="554" 
d="M255 2q-47 8 -87.5 36t-67.5 71q-47 76 -62 216q-12 109 -10 246q1 43 2 55t6 21q10 21 31 32q20 9 44 5.5t38 -18.5q6 -6 12 -18q4 -8 4.5 -21.5t0.5 -70.5q1 -181 18 -275.5t57 -129.5q34 -30 64.5 -16t49.5 67q37 104 28 347q-3 79 -1 96.5t14 31.5q27 30 67.5 21.5
t51.5 -47.5q3 -12 7 -113q4 -131 -3.5 -216t-29.5 -152q-43 -132 -149 -163q-16 -5 -43 -6.5t-42 1.5z" />
    <glyph glyph-name="U" unicode="&#xdc;" horiz-adv-x="554" 
d="M255 2q-47 8 -87.5 36t-67.5 71q-47 76 -62 216q-12 109 -10 246q1 43 2 55t6 21q10 21 31 32q20 9 44 5.5t38 -18.5q6 -6 12 -18q4 -8 4.5 -21.5t0.5 -70.5q1 -181 18 -275.5t57 -129.5q34 -30 64.5 -16t49.5 67q37 104 28 347q-3 79 -1 96.5t14 31.5q27 30 67.5 21.5
t51.5 -47.5q3 -12 7 -113q4 -131 -3.5 -216t-29.5 -152q-43 -132 -149 -163q-16 -5 -43 -6.5t-42 1.5z" />
    <glyph glyph-name="U" unicode="&#xdb;" horiz-adv-x="554" 
d="M255 2q-47 8 -87.5 36t-67.5 71q-47 76 -62 216q-12 109 -10 246q1 43 2 55t6 21q10 21 31 32q20 9 44 5.5t38 -18.5q6 -6 12 -18q4 -8 4.5 -21.5t0.5 -70.5q1 -181 18 -275.5t57 -129.5q34 -30 64.5 -16t49.5 67q37 104 28 347q-3 79 -1 96.5t14 31.5q27 30 67.5 21.5
t51.5 -47.5q3 -12 7 -113q4 -131 -3.5 -216t-29.5 -152q-43 -132 -149 -163q-16 -5 -43 -6.5t-42 1.5z" />
    <glyph glyph-name="U" unicode="&#xda;" horiz-adv-x="554" 
d="M255 2q-47 8 -87.5 36t-67.5 71q-47 76 -62 216q-12 109 -10 246q1 43 2 55t6 21q10 21 31 32q20 9 44 5.5t38 -18.5q6 -6 12 -18q4 -8 4.5 -21.5t0.5 -70.5q1 -181 18 -275.5t57 -129.5q34 -30 64.5 -16t49.5 67q37 104 28 347q-3 79 -1 96.5t14 31.5q27 30 67.5 21.5
t51.5 -47.5q3 -12 7 -113q4 -131 -3.5 -216t-29.5 -152q-43 -132 -149 -163q-16 -5 -43 -6.5t-42 1.5z" />
    <glyph glyph-name="U" unicode="&#xd9;" horiz-adv-x="554" 
d="M255 2q-47 8 -87.5 36t-67.5 71q-47 76 -62 216q-12 109 -10 246q1 43 2 55t6 21q10 21 31 32q20 9 44 5.5t38 -18.5q6 -6 12 -18q4 -8 4.5 -21.5t0.5 -70.5q1 -181 18 -275.5t57 -129.5q34 -30 64.5 -16t49.5 67q37 104 28 347q-3 79 -1 96.5t14 31.5q27 30 67.5 21.5
t51.5 -47.5q3 -12 7 -113q4 -131 -3.5 -216t-29.5 -152q-43 -132 -149 -163q-16 -5 -43 -6.5t-42 1.5z" />
    <glyph glyph-name="V" unicode="V" horiz-adv-x="596" 
d="M299 2q-29 5 -44 22q-9 11 -59 130q-38 94 -107 257q-52 127 -69.5 170.5t-19.5 50.5q-1 11 3.5 26t12.5 25q20 23 51.5 23.5t51.5 -21.5q5 -6 11 -16.5t16 -34.5t34 -82q28 -66 54 -128q27 -67 50 -121q21 -51 23 -54q1 -1 4 3l3 7l29 81q42 113 97 266q18 48 23 59
t16 20q13 12 29 16t30.5 0t27 -12.5t20 -23t7.5 -32.5q0 -12 -20.5 -68.5t-50.5 -136.5q-26 -71 -51 -141q-23 -63 -51 -141q-32 -86 -38.5 -102t-15.5 -24q-27 -26 -67 -18z" />
    <glyph glyph-name="W" unicode="W" horiz-adv-x="800" 
d="M202 4q-61 14 -100.5 79t-52.5 175q-5 43 -11 131.5t-9 164t-1 86.5q6 27 31 43q26 15 58 7q12 -4 26.5 -17.5t17.5 -25.5q3 -11 6 -77q9 -221 21 -306q5 -42 16.5 -77t22.5 -44q4 -4 5.5 -3.5t5.5 5.5q27 38 55 144.5t48 251.5q3 18 7 26.5t13 18.5q21 21 52.5 19.5
t49.5 -23.5q7 -8 10.5 -17.5t6.5 -27t6 -51.5q11 -118 25 -185t36 -110q11 -22 22 -34t15 -8q3 2 8.5 13.5t10.5 27t9 30.5q13 51 16 112t-1 172q-4 115 -3.5 135.5t8.5 32.5q12 20 33 28t43 2q31 -9 44 -35q6 -12 8.5 -44t5.5 -133q4 -106 1 -159q-10 -150 -54 -234
q-41 -78 -109.5 -89t-129.5 50q-37 38 -62 95l-9 20l-9 -24q-50 -130 -140 -147q-26 -4 -52 2z" />
    <glyph glyph-name="X" unicode="X" horiz-adv-x="534" 
d="M434 -8q-19 6 -31 18q-11 11 -122 186q-12 17 -13.5 17t-38.5 -56q-54 -82 -69 -102.5t-28 -27.5q-35 -20 -67.5 -4t-34.5 55q-1 15 4.5 28t31.5 51q83 127 112 168l10 14l-37 58q-28 42 -84 129q-13 20 -24.5 38t-19 30t-8.5 15q-10 22 -1 46q13 35 51 42.5t63 -19.5
q11 -11 76 -113q19 -29 31.5 -48t20.5 -30.5t11.5 -16t4.5 -3.5q4 3 47 69.5t57 89.5q16 27 31.5 37.5t39.5 10.5q31 0 51 -23t16 -50q-2 -14 -21 -45t-90 -139l-52 -80l78 -120q78 -121 85 -132q6 -11 6.5 -27.5t-4.5 -26.5q-4 -10 -13.5 -19.5t-19.5 -14.5q-9 -4 -24.5 -6
t-24.5 1z" />
    <glyph glyph-name="Y" unicode="Y" horiz-adv-x="480" 
d="M219 -16q-27 7 -44 34q-6 9 -7 32.5t-4 156.5v7l-3 135l-76 113q-75 113 -80.5 123.5t-6.5 26.5t4 26q11 26 38.5 36.5t54.5 -1.5q15 -6 22 -14q6 -8 62 -91q55 -82 57 -84q1 -1 18.5 27t41.5 68q58 96 70 107q26 26 63 17.5t49 -43.5q9 -24 -1 -45q-6 -11 -84.5 -140.5
t-84.5 -136.5l-7 -10l2 -146q2 -102 1.5 -125.5t-4.5 -32.5q-8 -20 -28 -32q-10 -6 -26 -8t-27 0z" />
    <glyph glyph-name="Y" unicode="&#x178;" horiz-adv-x="480" 
d="M219 -16q-27 7 -44 34q-6 9 -7 32.5t-4 156.5v7l-3 135l-76 113q-75 113 -80.5 123.5t-6.5 26.5t4 26q11 26 38.5 36.5t54.5 -1.5q15 -6 22 -14q6 -8 62 -91q55 -82 57 -84q1 -1 18.5 27t41.5 68q58 96 70 107q26 26 63 17.5t49 -43.5q9 -24 -1 -45q-6 -11 -84.5 -140.5
t-84.5 -136.5l-7 -10l2 -146q2 -102 1.5 -125.5t-4.5 -32.5q-8 -20 -28 -32q-10 -6 -26 -8t-27 0z" />
    <glyph glyph-name="Y" unicode="&#xdd;" horiz-adv-x="480" 
d="M219 -16q-27 7 -44 34q-6 9 -7 32.5t-4 156.5v7l-3 135l-76 113q-75 113 -80.5 123.5t-6.5 26.5t4 26q11 26 38.5 36.5t54.5 -1.5q15 -6 22 -14q6 -8 62 -91q55 -82 57 -84q1 -1 18.5 27t41.5 68q58 96 70 107q26 26 63 17.5t49 -43.5q9 -24 -1 -45q-6 -11 -84.5 -140.5
t-84.5 -136.5l-7 -10l2 -146q2 -102 1.5 -125.5t-4.5 -32.5q-8 -20 -28 -32q-10 -6 -26 -8t-27 0z" />
    <glyph glyph-name="Z" unicode="Z" horiz-adv-x="522" 
d="M375 3q-12 -4 -162 -3t-162 4q-23 7 -36 29t-9 48q1 10 29.5 52.5t197.5 288.5q91 132 94 137v2t-4.5 2t-11 1t-20.5 1q-37 2 -113 2q-75 0 -85 3q-21 5 -35.5 24t-14.5 41q1 41 38 61q8 4 20.5 5t66.5 1q78 0 185 -1q78 -1 94.5 -2t24.5 -6q8 -4 18 -13t18 -19t10 -16
q10 -29 -2 -52q-6 -11 -159 -233l-152 -222l167 -3l15 -8q36 -20 36 -60q1 -21 -13.5 -40t-34.5 -24z" />
    <glyph glyph-name="bracketleft" unicode="[" horiz-adv-x="462" 
d="M101 -104q-33 10 -48 44l-7 16l-1 428q0 429 3 437q2 5 7 11.5t12 12.5t13 9q8 5 25.5 6t103.5 1q118 1 128 -2q11 -3 23 -14t17 -23q12 -26 2 -52.5t-37 -39.5q-8 -4 -21.5 -5t-65.5 -2h-75l2 -151q2 -148 2 -345v-195l90 -1q64 0 78 -1t22 -6q24 -12 34 -36
q4 -9 4 -25.5t-4 -26.5q-11 -24 -37 -36l-14 -7h-124q-126 1 -132 3z" />
    <glyph glyph-name="backslash" unicode="\" horiz-adv-x="390" 
d="M286 18q-14 3 -27 12.5t-19 20.5q-5 9 -169 448q-41 111 -47.5 135t-1.5 43q3 8 10 17t17 16.5t18 9.5q21 6 43 -1t33 -24q7 -11 72 -185q63 -168 109 -293q45 -118 45 -130q0 -26 -19 -47q-26 -29 -64 -22z" />
    <glyph glyph-name="bracketright" unicode="]" horiz-adv-x="462" 
d="M104 -109l-14 6q-26 12 -36 37q-4 9 -4 26t4 26q10 23 33 36q5 2 8 3t15 2t27 1t51 1l90 1v195q0 196 1 345l2 150l-75 1q-51 0 -64.5 1t-22.5 6q-27 12 -37 38.5t2 52.5q6 12 18 23t23 15q10 2 128 2q86 -1 103.5 -2t25.5 -5q9 -5 19 -15.5t13 -18.5q3 -7 2 -436v-429
l-7 -15q-12 -27 -36 -40q-8 -4 -26.5 -5t-113.5 -2h-129z" />
    <glyph glyph-name="asciicircum" unicode="^" horiz-adv-x="477" 
d="M363 353q-23 9 -42.5 33t-66.5 102l-22 35l-34 -60q-35 -63 -45 -77.5t-24 -21.5q-16 -8 -35 -7q-28 2 -45.5 19t-19.5 45q-1 17 5 31t34 63q73 126 87 157q14 33 44.5 45.5t59.5 -1.5q12 -6 23.5 -18.5t28 -38t45.5 -73.5q32 -53 58 -92t30 -50t4 -28t-4 -27
q-10 -24 -33.5 -34t-47.5 -2z" />
    <glyph glyph-name="underscore" unicode="_" horiz-adv-x="538" 
d="M79 8q-24 7 -39 29.5t-11 47.5q2 13 11.5 27t21.5 21l13 9h178q178 1 196 -2q27 -4 43 -20.5t17 -41.5q2 -30 -17 -51q-1 -1 -3 -4q-13 -14 -35.5 -16.5t-147.5 -2.5h-31q-183 1 -196 4z" />
    <glyph glyph-name="a" unicode="a" horiz-adv-x="539" 
d="M402 3q-18 8 -33 28l-6 7l-31 -3q-85 -9 -156 15q-45 14 -78 46q-50 48 -50 120q0 78 57 136q26 25 57 41t69.5 24t88.5 8h45l-1 24q-8 97 -69 109q-23 4 -44 -4t-50 -32q-35 -29 -55 -64q-17 -28 -45 -36q-43 -12 -71.5 22t-7.5 73q25 48 75.5 93.5t99.5 65.5
q37 15 80 15q79 1 136.5 -44t77.5 -123q9 -33 11 -76t1 -148q-4 -244 -12 -261q-10 -25 -37.5 -36t-51.5 0zM331 168q21 3 26 4q4 2 6 58t-1 59t-33.5 3.5t-51.5 -2.5q-36 -6 -56 -17.5t-30 -31.5q-5 -10 -5 -24.5t5 -22.5q12 -16 53 -24t87 -2z" />
    <glyph glyph-name="a" unicode="&#xe5;" horiz-adv-x="539" 
d="M402 3q-18 8 -33 28l-6 7l-31 -3q-85 -9 -156 15q-45 14 -78 46q-50 48 -50 120q0 78 57 136q26 25 57 41t69.5 24t88.5 8h45l-1 24q-8 97 -69 109q-23 4 -44 -4t-50 -32q-35 -29 -55 -64q-17 -28 -45 -36q-43 -12 -71.5 22t-7.5 73q25 48 75.5 93.5t99.5 65.5
q37 15 80 15q79 1 136.5 -44t77.5 -123q9 -33 11 -76t1 -148q-4 -244 -12 -261q-10 -25 -37.5 -36t-51.5 0zM331 168q21 3 26 4q4 2 6 58t-1 59t-33.5 3.5t-51.5 -2.5q-36 -6 -56 -17.5t-30 -31.5q-5 -10 -5 -24.5t5 -22.5q12 -16 53 -24t87 -2z" />
    <glyph glyph-name="a" unicode="&#xe4;" horiz-adv-x="539" 
d="M402 3q-18 8 -33 28l-6 7l-31 -3q-85 -9 -156 15q-45 14 -78 46q-50 48 -50 120q0 78 57 136q26 25 57 41t69.5 24t88.5 8h45l-1 24q-8 97 -69 109q-23 4 -44 -4t-50 -32q-35 -29 -55 -64q-17 -28 -45 -36q-43 -12 -71.5 22t-7.5 73q25 48 75.5 93.5t99.5 65.5
q37 15 80 15q79 1 136.5 -44t77.5 -123q9 -33 11 -76t1 -148q-4 -244 -12 -261q-10 -25 -37.5 -36t-51.5 0zM331 168q21 3 26 4q4 2 6 58t-1 59t-33.5 3.5t-51.5 -2.5q-36 -6 -56 -17.5t-30 -31.5q-5 -10 -5 -24.5t5 -22.5q12 -16 53 -24t87 -2z" />
    <glyph glyph-name="a" unicode="&#xe3;" horiz-adv-x="539" 
d="M402 3q-18 8 -33 28l-6 7l-31 -3q-85 -9 -156 15q-45 14 -78 46q-50 48 -50 120q0 78 57 136q26 25 57 41t69.5 24t88.5 8h45l-1 24q-8 97 -69 109q-23 4 -44 -4t-50 -32q-35 -29 -55 -64q-17 -28 -45 -36q-43 -12 -71.5 22t-7.5 73q25 48 75.5 93.5t99.5 65.5
q37 15 80 15q79 1 136.5 -44t77.5 -123q9 -33 11 -76t1 -148q-4 -244 -12 -261q-10 -25 -37.5 -36t-51.5 0zM331 168q21 3 26 4q4 2 6 58t-1 59t-33.5 3.5t-51.5 -2.5q-36 -6 -56 -17.5t-30 -31.5q-5 -10 -5 -24.5t5 -22.5q12 -16 53 -24t87 -2z" />
    <glyph glyph-name="a" unicode="&#xe2;" horiz-adv-x="539" 
d="M402 3q-18 8 -33 28l-6 7l-31 -3q-85 -9 -156 15q-45 14 -78 46q-50 48 -50 120q0 78 57 136q26 25 57 41t69.5 24t88.5 8h45l-1 24q-8 97 -69 109q-23 4 -44 -4t-50 -32q-35 -29 -55 -64q-17 -28 -45 -36q-43 -12 -71.5 22t-7.5 73q25 48 75.5 93.5t99.5 65.5
q37 15 80 15q79 1 136.5 -44t77.5 -123q9 -33 11 -76t1 -148q-4 -244 -12 -261q-10 -25 -37.5 -36t-51.5 0zM331 168q21 3 26 4q4 2 6 58t-1 59t-33.5 3.5t-51.5 -2.5q-36 -6 -56 -17.5t-30 -31.5q-5 -10 -5 -24.5t5 -22.5q12 -16 53 -24t87 -2z" />
    <glyph glyph-name="a" unicode="&#xe1;" horiz-adv-x="539" 
d="M402 3q-18 8 -33 28l-6 7l-31 -3q-85 -9 -156 15q-45 14 -78 46q-50 48 -50 120q0 78 57 136q26 25 57 41t69.5 24t88.5 8h45l-1 24q-8 97 -69 109q-23 4 -44 -4t-50 -32q-35 -29 -55 -64q-17 -28 -45 -36q-43 -12 -71.5 22t-7.5 73q25 48 75.5 93.5t99.5 65.5
q37 15 80 15q79 1 136.5 -44t77.5 -123q9 -33 11 -76t1 -148q-4 -244 -12 -261q-10 -25 -37.5 -36t-51.5 0zM331 168q21 3 26 4q4 2 6 58t-1 59t-33.5 3.5t-51.5 -2.5q-36 -6 -56 -17.5t-30 -31.5q-5 -10 -5 -24.5t5 -22.5q12 -16 53 -24t87 -2z" />
    <glyph glyph-name="a" unicode="&#xe0;" horiz-adv-x="539" 
d="M402 3q-18 8 -33 28l-6 7l-31 -3q-85 -9 -156 15q-45 14 -78 46q-50 48 -50 120q0 78 57 136q26 25 57 41t69.5 24t88.5 8h45l-1 24q-8 97 -69 109q-23 4 -44 -4t-50 -32q-35 -29 -55 -64q-17 -28 -45 -36q-43 -12 -71.5 22t-7.5 73q25 48 75.5 93.5t99.5 65.5
q37 15 80 15q79 1 136.5 -44t77.5 -123q9 -33 11 -76t1 -148q-4 -244 -12 -261q-10 -25 -37.5 -36t-51.5 0zM331 168q21 3 26 4q4 2 6 58t-1 59t-33.5 3.5t-51.5 -2.5q-36 -6 -56 -17.5t-30 -31.5q-5 -10 -5 -24.5t5 -22.5q12 -16 53 -24t87 -2z" />
    <glyph glyph-name="b" unicode="b" horiz-adv-x="533" 
d="M146 -1q-36 4 -56.5 16t-32.5 35l-10 19l-1 121q-2 132 -4 255q-2 133 -5 146q-4 23 10 52q13 25 40.5 34.5t102.5 13.5q54 2 96 0t75.5 -10t59.5 -21.5t46 -34.5q26 -26 37.5 -54t11.5 -65q0 -31 -7 -53q-28 -81 -108 -127l-12 -7l24 -25q59 -61 54 -130q-1 -22 -7 -36
q-18 -49 -70.5 -82.5t-124.5 -43.5q-23 -3 -62 -4t-57 1zM211 136q29 2 51 6q23 5 45 16t22 18q0 4 -10 15.5t-23 20.5q-31 24 -80 34q-4 1 -10 3q-18 4 -21 -1t-3 -38v-17v-59zM220 407q92 18 133 54q10 8 18 23t8 24q0 6 -5 13t-13.5 13t-19.5 9q-23 7 -65.5 10t-77.5 0
l-19 -2v-76q1 -74 5 -75q5 2 36 7z" />
    <glyph glyph-name="c" unicode="c" horiz-adv-x="487" 
d="M265 2q-46 7 -85 29q-122 70 -154 241q-6 31 -6 84t7 83q17 85 61.5 145.5t109.5 86.5q26 11 45.5 14.5t54.5 2.5q36 0 58.5 -4.5t51.5 -18t42 -29.5t13 -40q0 -23 -13.5 -40t-35.5 -23q-27 -8 -56 7q-31 16 -64 15.5t-59 -16.5q-14 -8 -28 -25.5t-24.5 -39.5t-16.5 -45
q-6 -24 -7.5 -63.5t3.5 -66.5q20 -121 96 -156q18 -8 38 -8q22 0 31.5 4.5t14.5 18.5q12 33 46 42.5t61 -12.5q10 -8 14.5 -15.5t7 -16.5t2.5 -24q0 -24 -9 -43q-14 -28 -45.5 -51t-67.5 -32q-16 -4 -43 -5.5t-43 1.5z" />
    <glyph glyph-name="c" unicode="&#xe7;" horiz-adv-x="487" 
d="M265 2q-46 7 -85 29q-122 70 -154 241q-6 31 -6 84t7 83q17 85 61.5 145.5t109.5 86.5q26 11 45.5 14.5t54.5 2.5q36 0 58.5 -4.5t51.5 -18t42 -29.5t13 -40q0 -23 -13.5 -40t-35.5 -23q-27 -8 -56 7q-31 16 -64 15.5t-59 -16.5q-14 -8 -28 -25.5t-24.5 -39.5t-16.5 -45
q-6 -24 -7.5 -63.5t3.5 -66.5q20 -121 96 -156q18 -8 38 -8q22 0 31.5 4.5t14.5 18.5q12 33 46 42.5t61 -12.5q10 -8 14.5 -15.5t7 -16.5t2.5 -24q0 -24 -9 -43q-14 -28 -45.5 -51t-67.5 -32q-16 -4 -43 -5.5t-43 1.5z" />
    <glyph glyph-name="d" unicode="d" horiz-adv-x="551" 
d="M157 3q-22 4 -51.5 14.5t-39.5 18.5q-11 9 -17 22l-7 14l2 566l8 14q14 24 46.5 34t87.5 6q158 -12 241 -92q73 -70 99 -179q6 -26 6.5 -76.5t-5.5 -77.5q-30 -145 -141 -215q-47 -31 -111 -44.5t-118 -4.5zM241 134q73 14 113.5 69t40.5 140q-1 64 -29.5 117t-75.5 76
q-37 18 -93 24l-16 2v-214q0 -214 2 -216t23 -1.5t35 3.5z" />
    <glyph glyph-name="e" unicode="e" horiz-adv-x="512" 
d="M266 6q-102 20 -158 83q-47 53 -71 134t-16 159q14 143 102 231q60 60 136 78.5t141 -11.5q62 -29 87 -89q7 -19 8.5 -50.5t-6.5 -57.5q-22 -81 -99.5 -156t-172.5 -108q-25 -8 -26 -9t3 -8t11 -16t13 -15q23 -24 68 -35q16 -4 40.5 -4t38.5 4q27 7 48.5 2t35 -21.5
t13.5 -39.5q1 -14 -5 -26.5t-16.5 -22.5t-23.5 -14q-30 -11 -72 -13.5t-79 5.5zM167 342q12 4 33 14q45 22 84.5 58t58.5 74q28 53 2 71q-8 5 -32 5q-17 0 -24 -1.5t-21 -8.5q-31 -14 -55 -41.5t-38 -65.5t-17 -82l-2 -27z" />
    <glyph glyph-name="e" unicode="&#xeb;" horiz-adv-x="512" 
d="M266 6q-102 20 -158 83q-47 53 -71 134t-16 159q14 143 102 231q60 60 136 78.5t141 -11.5q62 -29 87 -89q7 -19 8.5 -50.5t-6.5 -57.5q-22 -81 -99.5 -156t-172.5 -108q-25 -8 -26 -9t3 -8t11 -16t13 -15q23 -24 68 -35q16 -4 40.5 -4t38.5 4q27 7 48.5 2t35 -21.5
t13.5 -39.5q1 -14 -5 -26.5t-16.5 -22.5t-23.5 -14q-30 -11 -72 -13.5t-79 5.5zM167 342q12 4 33 14q45 22 84.5 58t58.5 74q28 53 2 71q-8 5 -32 5q-17 0 -24 -1.5t-21 -8.5q-31 -14 -55 -41.5t-38 -65.5t-17 -82l-2 -27z" />
    <glyph glyph-name="e" unicode="&#xea;" horiz-adv-x="512" 
d="M266 6q-102 20 -158 83q-47 53 -71 134t-16 159q14 143 102 231q60 60 136 78.5t141 -11.5q62 -29 87 -89q7 -19 8.5 -50.5t-6.5 -57.5q-22 -81 -99.5 -156t-172.5 -108q-25 -8 -26 -9t3 -8t11 -16t13 -15q23 -24 68 -35q16 -4 40.5 -4t38.5 4q27 7 48.5 2t35 -21.5
t13.5 -39.5q1 -14 -5 -26.5t-16.5 -22.5t-23.5 -14q-30 -11 -72 -13.5t-79 5.5zM167 342q12 4 33 14q45 22 84.5 58t58.5 74q28 53 2 71q-8 5 -32 5q-17 0 -24 -1.5t-21 -8.5q-31 -14 -55 -41.5t-38 -65.5t-17 -82l-2 -27z" />
    <glyph glyph-name="e" unicode="&#xe9;" horiz-adv-x="512" 
d="M266 6q-102 20 -158 83q-47 53 -71 134t-16 159q14 143 102 231q60 60 136 78.5t141 -11.5q62 -29 87 -89q7 -19 8.5 -50.5t-6.5 -57.5q-22 -81 -99.5 -156t-172.5 -108q-25 -8 -26 -9t3 -8t11 -16t13 -15q23 -24 68 -35q16 -4 40.5 -4t38.5 4q27 7 48.5 2t35 -21.5
t13.5 -39.5q1 -14 -5 -26.5t-16.5 -22.5t-23.5 -14q-30 -11 -72 -13.5t-79 5.5zM167 342q12 4 33 14q45 22 84.5 58t58.5 74q28 53 2 71q-8 5 -32 5q-17 0 -24 -1.5t-21 -8.5q-31 -14 -55 -41.5t-38 -65.5t-17 -82l-2 -27z" />
    <glyph glyph-name="e" unicode="&#xe8;" horiz-adv-x="512" 
d="M266 6q-102 20 -158 83q-47 53 -71 134t-16 159q14 143 102 231q60 60 136 78.5t141 -11.5q62 -29 87 -89q7 -19 8.5 -50.5t-6.5 -57.5q-22 -81 -99.5 -156t-172.5 -108q-25 -8 -26 -9t3 -8t11 -16t13 -15q23 -24 68 -35q16 -4 40.5 -4t38.5 4q27 7 48.5 2t35 -21.5
t13.5 -39.5q1 -14 -5 -26.5t-16.5 -22.5t-23.5 -14q-30 -11 -72 -13.5t-79 5.5zM167 342q12 4 33 14q45 22 84.5 58t58.5 74q28 53 2 71q-8 5 -32 5q-17 0 -24 -1.5t-21 -8.5q-31 -14 -55 -41.5t-38 -65.5t-17 -82l-2 -27z" />
    <glyph glyph-name="f" unicode="f" horiz-adv-x="455" 
d="M100 2q-31 9 -46 37q-4 8 -5.5 46t-5.5 289q-4 266 -1 274q9 32 42 45q8 3 32 4t131 1q152 0 161 -3q31 -9 43.5 -36.5t-3.5 -54.5q-6 -11 -12.5 -17t-16.5 -10.5t-33 -6.5t-50.5 -2.5t-81.5 -1.5h-74v-83q1 -83 2.5 -85t58.5 -0.5t67 -1.5q26 -6 41 -30q8 -13 8 -31
q0 -35 -26 -53q-14 -9 -30 -12t-63 -3l-55 -1l4 -214l-7 -14q-8 -15 -18 -23q-12 -9 -30 -13t-32 0z" />
    <glyph glyph-name="g" unicode="g" horiz-adv-x="503" 
d="M229 0q-33 -1 -54 4q-35 8 -64.5 27.5t-38.5 42.5q-9 21 -2.5 42.5t26.5 33.5q12 8 30 9q32 2 59 -20q13 -10 21 -12.5t26 -1.5q47 3 74 45q6 9 12.5 28.5t6.5 28.5v7l-51 1q-70 2 -117 21q-71 28 -110 89t-30 128q16 120 151 178q90 38 184 41l38 2l22 -11
q35 -17 47 -36q2 -4 3 -7.5t2 -17t1.5 -30.5t1.5 -58q6 -263 -5 -323q-9 -54 -28.5 -90t-54.5 -66q-63 -52 -150 -55zM327 362q4 2 2.5 101.5t-2.5 100.5q-2 2 -28.5 -4.5t-47.5 -13.5q-50 -16 -73.5 -39.5t-23.5 -56.5q0 -31 21.5 -54t58.5 -32q12 -3 50 -4t43 2z" />
    <glyph glyph-name="h" unicode="h" horiz-adv-x="579" 
d="M89 8q-25 9 -37 34l-7 15l-1 118q-2 378 -2 426.5t5 58.5q11 27 40 37.5t54 -2.5q22 -11 33 -33q4 -7 5 -28.5t1 -121.5q1 -141 2 -160l1 -20h106q106 0 107 1t1 124q-1 134 -0.5 159t5.5 35q12 25 42 35q24 9 49.5 -3t35.5 -37q4 -8 4.5 -50.5t2.5 -294.5
q1 -239 -4 -262q-3 -13 -17 -25q-13 -12 -25 -15q-29 -8 -52 3q-11 5 -22.5 18t-13.5 23q-3 12 -4 84v72h-14q-12 -1 -108 0h-93v-73q0 -54 -1 -65t-5 -20q-6 -11 -18.5 -21.5t-23.5 -13.5q-24 -6 -46 2z" />
    <glyph glyph-name="i" unicode="i" horiz-adv-x="221" 
d="M89 -1q-24 9 -37 32l-8 14l-2 124q-2 129 -2 236v6q0 89 2.5 105t18.5 24h2q20 10 55 7.5t48 -14.5q8 -8 10 -26.5t2 -89.5q1 -69 2 -221l2 -146l-6 -13q-10 -21 -30 -33q-11 -6 -28 -7.5t-29 2.5zM82 585q-43 13 -43 49q0 31 23 49.5t53.5 14.5t48.5 -30q9 -12 11 -24.5
t-6 -26.5q-12 -23 -36 -31.5t-51 -0.5z" />
    <glyph glyph-name="i" unicode="&#xef;" horiz-adv-x="221" 
d="M89 -1q-24 9 -37 32l-8 14l-2 124q-2 129 -2 236v6q0 89 2.5 105t18.5 24h2q20 10 55 7.5t48 -14.5q8 -8 10 -26.5t2 -89.5q1 -69 2 -221l2 -146l-6 -13q-10 -21 -30 -33q-11 -6 -28 -7.5t-29 2.5zM82 585q-43 13 -43 49q0 31 23 49.5t53.5 14.5t48.5 -30q9 -12 11 -24.5
t-6 -26.5q-12 -23 -36 -31.5t-51 -0.5z" />
    <glyph glyph-name="i" unicode="&#xee;" horiz-adv-x="221" 
d="M89 -1q-24 9 -37 32l-8 14l-2 124q-2 129 -2 236v6q0 89 2.5 105t18.5 24h2q20 10 55 7.5t48 -14.5q8 -8 10 -26.5t2 -89.5q1 -69 2 -221l2 -146l-6 -13q-10 -21 -30 -33q-11 -6 -28 -7.5t-29 2.5zM82 585q-43 13 -43 49q0 31 23 49.5t53.5 14.5t48.5 -30q9 -12 11 -24.5
t-6 -26.5q-12 -23 -36 -31.5t-51 -0.5z" />
    <glyph glyph-name="i" unicode="&#xed;" horiz-adv-x="221" 
d="M89 -1q-24 9 -37 32l-8 14l-2 124q-2 129 -2 236v6q0 89 2.5 105t18.5 24h2q20 10 55 7.5t48 -14.5q8 -8 10 -26.5t2 -89.5q1 -69 2 -221l2 -146l-6 -13q-10 -21 -30 -33q-11 -6 -28 -7.5t-29 2.5zM82 585q-43 13 -43 49q0 31 23 49.5t53.5 14.5t48.5 -30q9 -12 11 -24.5
t-6 -26.5q-12 -23 -36 -31.5t-51 -0.5z" />
    <glyph glyph-name="i" unicode="&#xec;" horiz-adv-x="221" 
d="M89 -1q-24 9 -37 32l-8 14l-2 124q-2 129 -2 236v6q0 89 2.5 105t18.5 24h2q20 10 55 7.5t48 -14.5q8 -8 10 -26.5t2 -89.5q1 -69 2 -221l2 -146l-6 -13q-10 -21 -30 -33q-11 -6 -28 -7.5t-29 2.5zM82 585q-43 13 -43 49q0 31 23 49.5t53.5 14.5t48.5 -30q9 -12 11 -24.5
t-6 -26.5q-12 -23 -36 -31.5t-51 -0.5z" />
    <glyph glyph-name="j" unicode="j" horiz-adv-x="440" 
d="M155 2q-34 5 -64 18t-52 33t-33 43q-6 13 -6 33t8 33q15 25 43.5 31.5t52.5 -9.5q11 -7 22 -22.5t25 -21.5t38 -6q22 -1 37 7.5t24 22.5q15 23 18.5 69t-0.5 169l-4 113l6 11q12 20 42 25q21 4 47.5 -2t37 -17t10.5 -224q1 -72 -1.5 -98t-10.5 -57q-16 -57 -56 -95.5
t-97 -51.5q-44 -11 -87 -4zM302 588q-23 11 -30 35q-9 28 5 50q8 14 18 19t30 5q37 0 56 -23q7 -10 7 -29t-6 -30q-11 -20 -35.5 -28.5t-44.5 1.5z" />
    <glyph glyph-name="k" unicode="k" horiz-adv-x="496" 
d="M101 1q-19 4 -33.5 17.5t-18.5 31.5q-3 13 -5.5 302.5t-0.5 297.5q8 24 28 36q25 16 53.5 10t44.5 -30l9 -12l1 -80q2 -79 3 -80.5t55 46.5q99 86 120.5 103t32.5 21q21 5 41 0q33 -9 45 -39t-8 -56q-7 -10 -128.5 -116t-121.5 -108t126 -118q104 -94 122 -114.5
t18 -40.5q0 -33 -28.5 -51.5t-63.5 -8.5q-10 4 -27 18t-84 75l-96 88v-145l-8 -14q-10 -18 -31 -27.5t-45 -5.5z" />
    <glyph glyph-name="l" unicode="l" horiz-adv-x="452" 
d="M101 2q-19 6 -32 20t-17 33q-3 17 -8.5 299.5t-2.5 292.5q7 26 35 40q13 6 30.5 6.5t28.5 -5.5q23 -11 34 -32q6 -9 7 -39.5t6 -250.5q6 -230 6 -231q2 -1 59.5 2t86.5 7q42 4 57 4q31 -2 50.5 -25t13.5 -51q-4 -18 -15 -29.5t-29.5 -18.5t-46.5 -10q-51 -7 -172 -11
q-36 -2 -58 -3q-20 -1 -33 2z" />
    <glyph glyph-name="m" unicode="m" horiz-adv-x="688" 
d="M546 4q-24 9 -35 30l-8 13l1 97q0 96 2 163q0 62 -2 62q-4 -5 -50 -80q-30 -50 -40 -65t-20 -24q-33 -27 -72 -16q-19 5 -31 20.5t-55 86.5l-52 89l-1 -21q-1 -21 2 -161.5t-1 -151.5q-15 -39 -60 -43q-21 -2 -39.5 7t-27.5 27q-6 9 -8 62t-7 306q-5 232 -2 242
q9 30 40 41.5t60 -3.5q22 -11 38.5 -33.5t81.5 -132.5q81 -139 84 -142q1 -1 5.5 4.5t14.5 21t25 40.5t39 64q81 135 88 144q13 17 38 22t45 -4q14 -6 27 -18l3 -3q15 -13 17 -39t0 -168v-27q-4 -259 -5.5 -313.5t-5.5 -63.5q-11 -22 -35 -33q-10 -4 -27 -4t-27 4z" />
    <glyph glyph-name="n" unicode="n" horiz-adv-x="556" 
d="M81 6q-14 6 -23 17q-1 0 -2 2q-11 12 -13 48.5t0 241.5v38l2 294l6 10q6 11 17 20q27 23 62.5 14.5t47.5 -41.5q5 -11 5 -17q0 -5 6 -2q5 1 22 9q29 13 49.5 17.5t49.5 4.5q49 0 89 -20q97 -47 118 -188q9 -61 4 -184q-3 -91 -4 -147q0 -44 -1 -53.5t-7 -18.5
q-20 -38 -61.5 -37.5t-61.5 37.5l-7 15l2 112q5 233 -4 273q-6 29 -15.5 47t-22.5 26.5t-31 8.5q-23 0 -62 -24t-56 -48l-7 -11l-2 -199q-1 -144 -2 -174t-5 -39q-4 -7 -10.5 -14.5t-15 -13.5t-15.5 -8q-28 -7 -52 4z" />
    <glyph glyph-name="n" unicode="&#xf1;" horiz-adv-x="556" 
d="M81 6q-14 6 -23 17q-1 0 -2 2q-11 12 -13 48.5t0 241.5v38l2 294l6 10q6 11 17 20q27 23 62.5 14.5t47.5 -41.5q5 -11 5 -17q0 -5 6 -2q5 1 22 9q29 13 49.5 17.5t49.5 4.5q49 0 89 -20q97 -47 118 -188q9 -61 4 -184q-3 -91 -4 -147q0 -44 -1 -53.5t-7 -18.5
q-20 -38 -61.5 -37.5t-61.5 37.5l-7 15l2 112q5 233 -4 273q-6 29 -15.5 47t-22.5 26.5t-31 8.5q-23 0 -62 -24t-56 -48l-7 -11l-2 -199q-1 -144 -2 -174t-5 -39q-4 -7 -10.5 -14.5t-15 -13.5t-15.5 -8q-28 -7 -52 4z" />
    <glyph glyph-name="o" unicode="o" horiz-adv-x="564" 
d="M246 1q-80 15 -138 83t-81 172q-6 28 -6 90.5t6 90.5q26 119 96 189q59 58 136 68q48 6 95.5 -12t85.5 -56q71 -71 96 -188q6 -29 6 -88q0 -50 -3 -74.5t-15 -63.5q-26 -87 -83.5 -144t-128.5 -68q-33 -5 -66 1zM315 146q14 7 31 24.5t27 37.5q32 61 32 140
q0 57 -17 104.5t-48 76.5q-60 57 -120 -3q-19 -19 -34 -49q-17 -35 -21.5 -58.5t-4.5 -71.5q0 -54 7 -81q16 -59 48 -94q48 -52 100 -26z" />
    <glyph glyph-name="o" unicode="&#xf8;" horiz-adv-x="564" 
d="M246 1q-80 15 -138 83t-81 172q-6 28 -6 90.5t6 90.5q26 119 96 189q59 58 136 68q48 6 95.5 -12t85.5 -56q71 -71 96 -188q6 -29 6 -88q0 -50 -3 -74.5t-15 -63.5q-26 -87 -83.5 -144t-128.5 -68q-33 -5 -66 1zM315 146q14 7 31 24.5t27 37.5q32 61 32 140
q0 57 -17 104.5t-48 76.5q-60 57 -120 -3q-19 -19 -34 -49q-17 -35 -21.5 -58.5t-4.5 -71.5q0 -54 7 -81q16 -59 48 -94q48 -52 100 -26z" />
    <glyph glyph-name="o" unicode="&#xf6;" horiz-adv-x="564" 
d="M246 1q-80 15 -138 83t-81 172q-6 28 -6 90.5t6 90.5q26 119 96 189q59 58 136 68q48 6 95.5 -12t85.5 -56q71 -71 96 -188q6 -29 6 -88q0 -50 -3 -74.5t-15 -63.5q-26 -87 -83.5 -144t-128.5 -68q-33 -5 -66 1zM315 146q14 7 31 24.5t27 37.5q32 61 32 140
q0 57 -17 104.5t-48 76.5q-60 57 -120 -3q-19 -19 -34 -49q-17 -35 -21.5 -58.5t-4.5 -71.5q0 -54 7 -81q16 -59 48 -94q48 -52 100 -26z" />
    <glyph glyph-name="o" unicode="&#xf5;" horiz-adv-x="564" 
d="M246 1q-80 15 -138 83t-81 172q-6 28 -6 90.5t6 90.5q26 119 96 189q59 58 136 68q48 6 95.5 -12t85.5 -56q71 -71 96 -188q6 -29 6 -88q0 -50 -3 -74.5t-15 -63.5q-26 -87 -83.5 -144t-128.5 -68q-33 -5 -66 1zM315 146q14 7 31 24.5t27 37.5q32 61 32 140
q0 57 -17 104.5t-48 76.5q-60 57 -120 -3q-19 -19 -34 -49q-17 -35 -21.5 -58.5t-4.5 -71.5q0 -54 7 -81q16 -59 48 -94q48 -52 100 -26z" />
    <glyph glyph-name="o" unicode="&#xf4;" horiz-adv-x="564" 
d="M246 1q-80 15 -138 83t-81 172q-6 28 -6 90.5t6 90.5q26 119 96 189q59 58 136 68q48 6 95.5 -12t85.5 -56q71 -71 96 -188q6 -29 6 -88q0 -50 -3 -74.5t-15 -63.5q-26 -87 -83.5 -144t-128.5 -68q-33 -5 -66 1zM315 146q14 7 31 24.5t27 37.5q32 61 32 140
q0 57 -17 104.5t-48 76.5q-60 57 -120 -3q-19 -19 -34 -49q-17 -35 -21.5 -58.5t-4.5 -71.5q0 -54 7 -81q16 -59 48 -94q48 -52 100 -26z" />
    <glyph glyph-name="o" unicode="&#xf3;" horiz-adv-x="564" 
d="M246 1q-80 15 -138 83t-81 172q-6 28 -6 90.5t6 90.5q26 119 96 189q59 58 136 68q48 6 95.5 -12t85.5 -56q71 -71 96 -188q6 -29 6 -88q0 -50 -3 -74.5t-15 -63.5q-26 -87 -83.5 -144t-128.5 -68q-33 -5 -66 1zM315 146q14 7 31 24.5t27 37.5q32 61 32 140
q0 57 -17 104.5t-48 76.5q-60 57 -120 -3q-19 -19 -34 -49q-17 -35 -21.5 -58.5t-4.5 -71.5q0 -54 7 -81q16 -59 48 -94q48 -52 100 -26z" />
    <glyph glyph-name="o" unicode="&#xf2;" horiz-adv-x="564" 
d="M246 1q-80 15 -138 83t-81 172q-6 28 -6 90.5t6 90.5q26 119 96 189q59 58 136 68q48 6 95.5 -12t85.5 -56q71 -71 96 -188q6 -29 6 -88q0 -50 -3 -74.5t-15 -63.5q-26 -87 -83.5 -144t-128.5 -68q-33 -5 -66 1zM315 146q14 7 31 24.5t27 37.5q32 61 32 140
q0 57 -17 104.5t-48 76.5q-60 57 -120 -3q-19 -19 -34 -49q-17 -35 -21.5 -58.5t-4.5 -71.5q0 -54 7 -81q16 -59 48 -94q48 -52 100 -26z" />
    <glyph glyph-name="p" unicode="p" horiz-adv-x="498" 
d="M90 4q-11 4 -21.5 14.5t-15.5 20.5q-4 9 -5.5 50t-4.5 249q-5 286 -1 298q2 7 7 14t11 13t14 10.5t15 6.5q49 13 126 13q52 1 75.5 -3t55.5 -19q65 -30 103 -86q40 -59 40 -122q0 -48 -20 -90q-31 -64 -96.5 -103.5t-156.5 -48.5l-33 -4l1 -85q1 -86 -5 -97
q-13 -22 -36 -32q-9 -3 -27 -3t-26 4zM222 355q66 11 102 46t25 78q-14 49 -63 73q-13 6 -21.5 7.5t-39.5 1.5q-42 1 -44.5 -1t-0.5 -105l1 -104h8q7 0 33 4z" />
    <glyph glyph-name="q" unicode="q" horiz-adv-x="566" 
d="M414 -69q-14 5 -22.5 13t-26.5 34q-10 15 -15.5 21t-8.5 5q-4 -1 -30 -6q-26 -4 -52 -1q-84 11 -146 79.5t-86 177.5q-6 28 -6 90.5t6 90.5q26 118 96 189q59 58 136 68q48 6 95.5 -12t85.5 -56q71 -71 96 -189q6 -28 6 -86q1 -51 -3 -79t-17 -67q-17 -52 -46 -94
q-15 -23 -15 -24.5t19 -29.5q17 -26 21 -35t4 -24.5t-6 -29t-17 -23t-25 -13.5q-21 -7 -43 1zM255 139l-1 1.5t-2.5 4.5t-3.5 6q-16 26 -16 48q0 28 19.5 48t47.5 20q22 0 37 -9.5t30 -31.5l9 -16l4 8q18 35 24 90t-3 101q-16 77 -59 118q-61 57 -121 -3q-19 -20 -34 -49
q-17 -35 -21.5 -58.5t-4.5 -71.5q0 -54 7 -81q7 -25 18.5 -48.5t26 -41t29.5 -27.5q13 -8 14 -8z" />
    <glyph glyph-name="r" unicode="r" horiz-adv-x="508" 
d="M90 4q-11 4 -21.5 14.5t-15.5 20.5q-4 9 -5.5 50t-4.5 249q-5 286 -1 298q4 14 18 27t29 17q48 13 126 13q52 1 75.5 -3t55.5 -19q83 -38 123 -121q15 -29 19 -66t-4 -69q-14 -58 -60.5 -105t-115.5 -71q-15 -5 -15 -7q0 -1 3 -2q5 -4 77 -56q48 -35 61.5 -46.5
t17.5 -19.5q7 -13 7.5 -30t-5.5 -28q-21 -38 -63 -38q-18 0 -34 9.5t-88 61.5q-79 57 -81.5 58.5t-2.5 -46.5q0 -34 -1 -43t-5 -17q-13 -22 -36 -32q-9 -3 -27 -3t-26 4zM222 355q66 11 102 46t25 78q-14 50 -63 73q-13 6 -21.5 7.5t-39.5 2.5q-42 0 -44.5 -2t-0.5 -105
l1 -104h8q6 0 33 4z" />
    <glyph glyph-name="s" unicode="s" horiz-adv-x="454" 
d="M175 1q-1 0 -9.5 1.5t-14.5 2.5q-40 7 -69 27q-25 18 -28.5 47.5t17.5 49.5q36 34 87 11q18 -8 44.5 -8t42.5 6q14 5 26 14.5t15 18.5q6 16 -1 38t-22 36q-15 15 -74 39q-52 20 -83 40.5t-52 48.5q-38 50 -38 115q0 48 22 88q16 30 43 57q82 79 203 55q78 -15 120 -57
q20 -21 25.5 -37.5t-0.5 -36.5q-8 -27 -35 -40q-46 -21 -87 19q-24 24 -68 26q-17 1 -22.5 0t-16.5 -6q-29 -15 -41 -44t2 -54q9 -16 27.5 -28t68.5 -32q39 -16 60 -27q73 -42 101 -123q8 -22 8 -57q0 -30 -3.5 -46t-15.5 -38q-19 -36 -57 -62.5t-86 -37.5q-17 -4 -47.5 -6
t-41.5 0z" />
    <glyph glyph-name="t" unicode="t" horiz-adv-x="548" 
d="M254 2q-11 4 -24.5 17.5t-16.5 24.5q-4 12 -3 265l1 254l-23 -2q-24 -1 -67 -6q-70 -7 -87 2q-24 11 -34 33q-4 9 -4 24.5t5 25.5q4 10 17.5 21.5t23.5 14.5q20 5 129 14q46 4 125 3.5t110 -4.5q71 -10 92 -16t36 -20q22 -22 17 -52t-33 -44q-17 -8 -31.5 -8.5t-50.5 4.5
q-44 7 -66 9l-21 1v-250q0 -250 -2 -260q-2 -12 -11.5 -25t-20.5 -19q-13 -8 -32 -9t-29 2z" />
    <glyph glyph-name="u" unicode="u" horiz-adv-x="553" 
d="M249 2q-39 6 -75.5 29t-62.5 58q-46 60 -65 162t-17 280q1 71 2 87.5t5 25.5q17 34 55 38q31 3 53 -16q1 0 2 -1q16 -13 18.5 -30t2.5 -105v-8q1 -151 12 -224q21 -135 78 -162q34 -16 61 9q41 37 60 167q4 33 5 186q0 146 5 160q2 7 14 18q17 15 40.5 17t43.5 -9
q28 -17 33 -50q2 -15 2 -149t-5 -175q-16 -133 -59 -206t-119 -96q-45 -14 -89 -6z" />
    <glyph glyph-name="u" unicode="&#xfc;" horiz-adv-x="553" 
d="M249 2q-39 6 -75.5 29t-62.5 58q-46 60 -65 162t-17 280q1 71 2 87.5t5 25.5q17 34 55 38q31 3 53 -16q1 0 2 -1q16 -13 18.5 -30t2.5 -105v-8q1 -151 12 -224q21 -135 78 -162q34 -16 61 9q41 37 60 167q4 33 5 186q0 146 5 160q2 7 14 18q17 15 40.5 17t43.5 -9
q28 -17 33 -50q2 -15 2 -149t-5 -175q-16 -133 -59 -206t-119 -96q-45 -14 -89 -6z" />
    <glyph glyph-name="u" unicode="&#xfb;" horiz-adv-x="553" 
d="M249 2q-39 6 -75.5 29t-62.5 58q-46 60 -65 162t-17 280q1 71 2 87.5t5 25.5q17 34 55 38q31 3 53 -16q1 0 2 -1q16 -13 18.5 -30t2.5 -105v-8q1 -151 12 -224q21 -135 78 -162q34 -16 61 9q41 37 60 167q4 33 5 186q0 146 5 160q2 7 14 18q17 15 40.5 17t43.5 -9
q28 -17 33 -50q2 -15 2 -149t-5 -175q-16 -133 -59 -206t-119 -96q-45 -14 -89 -6z" />
    <glyph glyph-name="u" unicode="&#xfa;" horiz-adv-x="553" 
d="M249 2q-39 6 -75.5 29t-62.5 58q-46 60 -65 162t-17 280q1 71 2 87.5t5 25.5q17 34 55 38q31 3 53 -16q1 0 2 -1q16 -13 18.5 -30t2.5 -105v-8q1 -151 12 -224q21 -135 78 -162q34 -16 61 9q41 37 60 167q4 33 5 186q0 146 5 160q2 7 14 18q17 15 40.5 17t43.5 -9
q28 -17 33 -50q2 -15 2 -149t-5 -175q-16 -133 -59 -206t-119 -96q-45 -14 -89 -6z" />
    <glyph glyph-name="u" unicode="&#xf9;" horiz-adv-x="553" 
d="M249 2q-39 6 -75.5 29t-62.5 58q-46 60 -65 162t-17 280q1 71 2 87.5t5 25.5q17 34 55 38q31 3 53 -16q1 0 2 -1q16 -13 18.5 -30t2.5 -105v-8q1 -151 12 -224q21 -135 78 -162q34 -16 61 9q41 37 60 167q4 33 5 186q0 146 5 160q2 7 14 18q17 15 40.5 17t43.5 -9
q28 -17 33 -50q2 -15 2 -149t-5 -175q-16 -133 -59 -206t-119 -96q-45 -14 -89 -6z" />
    <glyph glyph-name="v" unicode="v" horiz-adv-x="597" 
d="M300 2q-29 5 -44 22q-9 10 -59 128q-39 92 -107 252q-52 124 -69.5 166.5t-19.5 49.5q-1 11 3.5 25.5t12.5 24.5q20 23 51.5 23.5t51.5 -21.5q5 -5 11 -15.5t16 -34.5t34 -80q28 -67 54 -126q31 -74 50 -118q21 -51 23 -53t4 4q2 2 3 5t5 14t11.5 31.5t12.5 34.5
q38 99 97 261q18 47 23 57.5t16 20.5q32 27 71 11.5t42 -56.5q1 -8 0 -15t-5 -18t-14 -40q-23 -61 -51 -135q-21 -59 -51 -138q-25 -69 -51 -138q-32 -85 -38.5 -100.5t-15.5 -23.5q-27 -26 -67 -18z" />
    <glyph glyph-name="w" unicode="w" horiz-adv-x="802" 
d="M203 4q-131 30 -156 274q-7 68 -14 203.5t-4 147.5q6 28 31 43q26 15 58 7q12 -4 26 -17.5t18 -24.5q3 -11 5 -76q10 -218 21 -302q6 -40 17.5 -74.5t22.5 -44.5q4 -3 5.5 -2.5t5.5 5.5q27 37 55 141.5t48 247.5q3 18 6.5 26.5t13.5 18.5q21 20 52 18.5t50 -22.5
q7 -8 10.5 -17.5t6 -26.5t6.5 -51q11 -116 25 -182t36 -108q11 -21 21.5 -33t15.5 -9q5 4 13.5 26t14.5 45q12 50 15.5 110t-0.5 169q-4 113 -3.5 133.5t7.5 31.5q13 20 34 28t43 2q31 -8 44 -35q6 -11 8.5 -42.5t5.5 -131.5q4 -104 0 -156q-9 -147 -53 -231
q-41 -76 -110 -87t-129 50q-37 37 -62 93l-9 20l-9 -24q-50 -128 -140 -144q-26 -5 -52 1z" />
    <glyph glyph-name="x" unicode="x" horiz-adv-x="534" 
d="M434 1q-19 6 -31 18q-11 10 -122 182q-12 17 -13.5 17t-38.5 -55q-54 -80 -69 -100t-28 -27q-35 -19 -67.5 -3.5t-34.5 53.5v1q-2 17 11 38.5t90 134.5q1 2 2 3t2 2.5l2 3t2 3.5l48 70l-37 56q-39 59 -83 127q-19 29 -34.5 53t-17.5 28q-7 15 -4.5 32.5t14.5 31.5
q18 22 50.5 23.5t52.5 -19.5q9 -8 60 -86q82 -121 85 -122q4 5 48 71.5t55 84.5q16 27 31.5 37.5t39.5 9.5q31 0 51 -22t16 -49q-2 -14 -21 -44.5t-90 -135.5l-52 -78l78 -118q78 -118 85 -130q6 -10 6.5 -26t-3.5 -26q-5 -10 -14.5 -19.5t-19.5 -14.5q-9 -4 -24.5 -5.5
t-24.5 0.5z" />
    <glyph glyph-name="y" unicode="y" horiz-adv-x="480" 
d="M195 2q-27 8 -42 34q-6 10 -6.5 32.5t2.5 157.5l2 132l-71 112q-72 113 -77 123t-5 25t5 26q12 24 40 33t54 -3q15 -7 21.5 -15t58 -89.5t54.5 -83.5q0 -1 9 11t23.5 33t31.5 45q61 92 73 102q28 24 64.5 14.5t47.5 -43.5q7 -25 -4 -44q-6 -11 -89 -133.5t-89 -129.5
l-8 -9l-3 -141q-3 -100 -4 -122.5t-5 -30.5q-9 -19 -30 -30q-10 -6 -26 -7.5t-27 1.5z" />
    <glyph glyph-name="y" unicode="&#xff;" horiz-adv-x="480" 
d="M195 2q-27 8 -42 34q-6 10 -6.5 32.5t2.5 157.5l2 132l-71 112q-72 113 -77 123t-5 25t5 26q12 24 40 33t54 -3q15 -7 21.5 -15t58 -89.5t54.5 -83.5q0 -1 9 11t23.5 33t31.5 45q61 92 73 102q28 24 64.5 14.5t47.5 -43.5q7 -25 -4 -44q-6 -11 -89 -133.5t-89 -129.5
l-8 -9l-3 -141q-3 -100 -4 -122.5t-5 -30.5q-9 -19 -30 -30q-10 -6 -26 -7.5t-27 1.5z" />
    <glyph glyph-name="y" unicode="&#xfd;" horiz-adv-x="480" 
d="M195 2q-27 8 -42 34q-6 10 -6.5 32.5t2.5 157.5l2 132l-71 112q-72 113 -77 123t-5 25t5 26q12 24 40 33t54 -3q15 -7 21.5 -15t58 -89.5t54.5 -83.5q0 -1 9 11t23.5 33t31.5 45q61 92 73 102q28 24 64.5 14.5t47.5 -43.5q7 -25 -4 -44q-6 -11 -89 -133.5t-89 -129.5
l-8 -9l-3 -141q-3 -100 -4 -122.5t-5 -30.5q-9 -19 -30 -30q-10 -6 -26 -7.5t-27 1.5z" />
    <glyph glyph-name="z" unicode="z" horiz-adv-x="523" 
d="M52 4q-23 7 -36 28.5t-9 47.5q1 10 29.5 52t197.5 285q91 130 94 135v2t-4.5 1.5t-11 1t-20.5 1.5q-38 1 -113 1t-85 3q-14 4 -25 14t-18 23.5t-7 26.5q1 41 38 61q11 5 49.5 6t182.5 -1q148 -2 159 -8q12 -6 27.5 -22t18.5 -26q10 -28 -2 -51q-6 -11 -159 -230
l-152 -219l167 -3l15 -8q36 -20 36 -59q1 -21 -13.5 -39.5t-34.5 -24.5q-12 -3 -162 -2t-162 4z" />
    <glyph glyph-name="braceleft" unicode="{" horiz-adv-x="502" 
d="M282 -80q-48 10 -83 45q-30 31 -44 71.5t-29 145.5q-15 99 -25 119q-4 9 -7.5 11.5t-16.5 7.5q-29 10 -44 36.5t-7 54.5q8 30 47 49q23 11 29 19q13 18 17 94q2 43 6 70t10.5 47t18.5 39q17 28 47.5 51.5t67 37t70.5 14.5q48 0 67 -37q10 -20 6.5 -41.5t-18.5 -36.5
q-11 -11 -20 -15.5t-30 -7.5q-29 -4 -49.5 -16.5t-27.5 -29.5q-6 -16 -12 -114q-6 -90 -38 -132l-7 -10l11 -21q15 -28 23 -63t23 -134q13 -87 25 -104q4 -6 7.5 -9t9.5 -5t16 -1.5t27 0.5q26 1 39 0t22 -5.5t19 -14.5q20 -20 19.5 -46t-21.5 -47q-25 -27 -99 -26
q-31 0 -49 4z" />
    <glyph glyph-name="verticalbar" unicode="|" horiz-adv-x="233" 
d="M97 -114q-27 9 -39 36q-6 11 -7 26t-2 92q-1 107 -3 457l-2 352l6 15q15 34 52 40t62 -22q15 -17 18 -45q1 -11 3.5 -402t2.5 -474q-1 -25 -7 -38q-14 -28 -42 -37q-21 -6 -42 0z" />
    <glyph glyph-name="braceright" unicode="}" horiz-adv-x="503" 
d="M121 -84q-49 8 -66 46.5t15 69.5q14 15 28.5 18.5t51.5 2.5q34 -2 43 0.5t17 14.5q12 17 25 103q15 99 23 134t23 63l11 21l-7 10q-32 42 -38 133q-6 97 -12 113q-5 11 -16 20.5t-26.5 16.5t-34.5 9q-21 3 -30 7.5t-20 15.5q-15 16 -18.5 37t6.5 41q19 37 67 37
q34 0 70.5 -13.5t67 -37t47.5 -52.5q17 -28 24.5 -60.5t10.5 -95.5q4 -76 17 -94q6 -8 29 -19q38 -18 47 -49q8 -28 -7 -54.5t-45 -36.5q-12 -4 -15.5 -7t-7.5 -12q-10 -20 -25 -118q-15 -105 -29 -146t-45 -72q-34 -35 -84 -45q-16 -4 -48 -4t-49 3z" />
    <glyph glyph-name="asciitilde" unicode="~" horiz-adv-x="539" 
d="M333 244q-42 11 -87 53q-34 32 -48 32q-21 0 -44 -25q-8 -7 -14 -12t-12.5 -8.5t-13 -4.5t-15.5 -1q-26 0 -44 15t-24 40q-7 35 24 70.5t82.5 53t96.5 6.5q25 -5 47 -18.5t54 -41.5q27 -24 30.5 -24t20.5 19q16 17 27.5 22.5t28.5 5.5q16 0 29.5 -6.5t22.5 -18t13 -27.5
q6 -25 -7 -51.5t-40 -47.5t-61 -29q-34 -9 -66 -2z" />
    <glyph glyph-name="nonbreakingspace" unicode="&#xa0;" horiz-adv-x="291" 
 />
    <glyph glyph-name="softhyphen" unicode="&#xad;" 
 />
    </font>
</defs>
</svg>
